<svg width="2516" height="1379" viewBox="0 0 2516 1379" fill="none" xmlns="http://www.w3.org/2000/svg">
<g filter="url(#filter0_d_1199_18)">
<path fill-rule="evenodd" clip-rule="evenodd" d="M1342.61 1079.5H1173.37C1201.26 1080.49 1229.48 1081 1257.99 1081C1286.51 1081 1314.73 1080.49 1342.61 1079.5ZM298 688H2217.99C2216 472.47 1786.96 298 1257.99 298C729.026 298 299.982 472.47 298 688Z" fill="#D9D9D9"/>
<path fill-rule="evenodd" clip-rule="evenodd" d="M1342.61 1079.5H1173.37C1201.26 1080.49 1229.48 1081 1257.99 1081C1286.51 1081 1314.73 1080.49 1342.61 1079.5ZM298 688H2217.99C2216 472.47 1786.96 298 1257.99 298C729.026 298 299.982 472.47 298 688Z" fill="url(#paint0_radial_1199_18)"/>
</g>
<rect x="298" y="688" width="1920" height="393" fill="#0D0322"/>
<defs>
<filter id="filter0_d_1199_18" x="0" y="0" width="2515.98" height="1379" filterUnits="userSpaceOnUse" color-interpolation-filters="sRGB">
<feFlood flood-opacity="0" result="BackgroundImageFix"/>
<feColorMatrix in="SourceAlpha" type="matrix" values="0 0 0 0 0 0 0 0 0 0 0 0 0 0 0 0 0 0 127 0" result="hardAlpha"/>
<feMorphology radius="48" operator="dilate" in="SourceAlpha" result="effect1_dropShadow_1199_18"/>
<feOffset/>
<feGaussianBlur stdDeviation="125"/>
<feComposite in2="hardAlpha" operator="out"/>
<feColorMatrix type="matrix" values="0 0 0 0 0.962458 0 0 0 0 0.557542 0 0 0 0 0.833743 0 0 0 1 0"/>
<feBlend mode="normal" in2="BackgroundImageFix" result="effect1_dropShadow_1199_18"/>
<feBlend mode="normal" in="SourceGraphic" in2="effect1_dropShadow_1199_18" result="shape"/>
</filter>
<radialGradient id="paint0_radial_1199_18" cx="0" cy="0" r="1" gradientUnits="userSpaceOnUse" gradientTransform="translate(1257.99 690) rotate(90) scale(391 1139.13)">
<stop offset="0.8" stop-color="#0C0222"/>
<stop offset="1" stop-color="#E750B7"/>
</radialGradient>
</defs>
</svg>
