<svg width="17" height="19" viewBox="0 0 17 19" fill="none" xmlns="http://www.w3.org/2000/svg">
<path d="M1.25328 18.6251C0.821409 18.6251 0.605469 18.4791 0.605469 18.1873C0.605469 18.0239 0.611304 17.9189 0.622976 17.8722C0.634648 17.8255 0.646326 17.7905 0.657999 17.7671L7.83645 1.44929C7.88314 1.35591 7.94734 1.2567 8.02904 1.15165C8.11075 1.03492 8.2975 0.976562 8.58931 0.976562H8.71187C8.87529 0.976562 9.00368 0.999907 9.09706 1.0466C9.19043 1.08161 9.26047 1.1283 9.30716 1.18666C9.35385 1.24502 9.38302 1.30922 9.39469 1.37926C9.41804 1.43762 9.44139 1.48431 9.46473 1.51932C10.0483 2.87331 10.5503 4.02886 10.9705 4.98599C11.4023 5.94312 11.7933 6.79519 12.1435 7.54222C12.4937 8.28925 12.8205 8.98958 13.124 9.64323C13.4391 10.2852 13.766 10.9797 14.1045 11.7267C14.4546 12.4738 14.834 13.3258 15.2425 14.283C15.6627 15.2401 16.1529 16.4015 16.7132 17.7671L16.6957 17.7496L16.7307 17.9247C16.7424 17.9831 16.7541 18.0356 16.7657 18.0823C16.7774 18.129 16.7832 18.164 16.7832 18.1873C16.7832 18.4791 16.5732 18.6251 16.1529 18.6251H1.25328ZM4.87752 15.5436H12.5112L8.62433 6.61427L4.87752 15.5436Z" fill="white"/>
</svg>
