<svg width="8" height="8" viewBox="0 0 8 8" fill="none" xmlns="http://www.w3.org/2000/svg">
<path d="M0.6 8C0.476667 8 0.415 7.95833 0.415 7.875C0.415 7.82833 0.416667 7.79833 0.42 7.785C0.423333 7.77167 0.426667 7.76167 0.43 7.755L3.515 0.71C3.52833 0.683333 3.54667 0.655 3.57 0.625C3.59333 0.591667 3.64667 0.575 3.73 0.575H3.765C3.81167 0.575 3.84833 0.581667 3.875 0.595C3.90167 0.605 3.92167 0.618333 3.935 0.635C3.94833 0.651666 3.95667 0.67 3.96 0.69C3.96667 0.706667 3.97333 0.72 3.98 0.729999C4.22 1.31667 4.46833 1.90333 4.725 2.49C4.985 3.07333 5.245 3.65833 5.505 4.245C5.765 4.82833 6.02333 5.41333 6.28 6C6.54 6.58667 6.79 7.17167 7.03 7.755L7.025 7.75L7.035 7.8C7.03833 7.81667 7.04167 7.83167 7.045 7.845C7.04833 7.85833 7.05 7.86833 7.05 7.875C7.05 7.95833 6.99 8 6.87 8H0.6ZM1.635 7.12H5.83L3.74 2.185L1.635 7.12Z" fill="#2C0132"/>
</svg>
