<svg width="132" height="34" viewBox="0 0 132 34" fill="none" xmlns="http://www.w3.org/2000/svg">
<path d="M43.3643 20.9429V9.98643C43.3643 9.34495 43.313 8.03206 43.2103 6.04775L44.5831 10.8588L47.8418 20.9429H50.536L53.7947 10.8588C53.8432 10.7077 53.896 10.5373 53.9533 10.3474L54.0241 10.1103C54.3037 9.16587 54.6762 7.81167 55.1418 6.04775C55.0648 7.92942 55.0242 8.99427 55.0199 9.24231C55.0156 9.49035 55.0135 9.73839 55.0135 9.98643V20.9429H58.3748V2.86602H53.3328L50.01 13.4761L49.2017 16.3755L48.5859 13.9508L48.3036 12.9757L45.0706 2.86602H40.0029V20.9429H43.3643ZM65.1518 21.1995C67.1874 21.1995 68.7098 20.2886 69.7191 18.4668H69.7961C69.8816 19.3306 70.1403 19.9849 70.5723 20.4297C71.0042 20.8744 71.6735 21.0968 72.5801 21.0968C72.8367 21.0968 73.0612 21.0883 73.2536 21.0712C73.4461 21.0541 73.6278 21.0327 73.7989 21.007C73.97 20.9813 74.141 20.9471 74.3121 20.9044C74.4831 20.8616 74.6756 20.8146 74.8894 20.7632V18.8132C74.6328 18.8645 74.3677 18.8901 74.094 18.8901C73.6834 18.8901 73.3905 18.7426 73.2151 18.4475C73.0398 18.1524 72.9521 17.6157 72.9521 16.8374V11.7826C72.9521 10.1917 72.4774 8.96434 71.5281 8.10048C70.5787 7.23663 69.2273 6.8047 67.4739 6.8047C65.7377 6.8047 64.367 7.15323 63.3621 7.85031C62.3571 8.54738 61.7391 9.5716 61.5082 10.923L65.2672 11.1026C65.3442 10.4012 65.5388 9.89876 65.851 9.59512C66.1632 9.29149 66.6528 9.13968 67.32 9.13968C68.0384 9.13968 68.5559 9.35992 68.8723 9.8004C69.1888 10.2409 69.347 10.9144 69.347 11.8211V12.5267L66.3578 12.578C64.5787 12.5951 63.2209 12.98 62.2844 13.7327C61.3478 14.4853 60.8795 15.5801 60.8795 17.017C60.8795 18.3427 61.2559 19.3712 62.0085 20.1025C62.7612 20.8338 63.8089 21.1995 65.1518 21.1995ZM66.3064 18.6849C65.8018 18.6849 65.3977 18.5245 65.094 18.2038C64.7904 17.883 64.6386 17.3934 64.6386 16.7348C64.6386 16.2216 64.7305 15.811 64.9144 15.5031C65.0983 15.1952 65.3656 14.9664 65.7163 14.8168C66.0669 14.6671 66.6614 14.5751 67.4996 14.5409L69.347 14.5153V15.2209C69.347 15.8281 69.2145 16.4033 68.9493 16.9465C68.6842 17.4896 68.3185 17.9151 67.8524 18.223C67.3863 18.5309 66.8709 18.6849 66.3064 18.6849ZM80.1396 20.9429V14.1304C80.1396 12.702 80.3898 11.6243 80.8901 10.8973C81.3905 10.1703 82.0897 9.80681 82.9878 9.80681C83.4325 9.80681 83.9457 9.87096 84.5273 9.99926V6.98431C84.2451 6.85602 83.873 6.79187 83.4111 6.79187C82.8466 6.79187 82.3762 6.88809 81.9999 7.08053C81.6236 7.27298 81.2985 7.56806 81.0249 7.96577C80.7512 8.36349 80.439 9.04987 80.0883 10.0249H80.037C80.037 9.76832 80.0156 9.24873 79.9728 8.46612C79.9301 7.68352 79.8959 7.21524 79.8702 7.06129H76.4319C76.4575 7.45473 76.4811 7.9059 76.5024 8.41481C76.5238 8.92371 76.5345 9.55877 76.5345 10.32V20.9429H80.1396ZM90.2907 21.1738C91.4283 21.1738 92.4418 21.0284 93.3313 20.7376V18.5052C92.8096 18.625 92.4076 18.6849 92.1253 18.6849C91.5865 18.6849 91.1888 18.5245 90.9322 18.2038C90.6756 17.883 90.5473 17.3848 90.5473 16.7091V9.4989H93.1774V7.06129H90.5473V3.80258H88.2893L87.1603 7.06129H85.223V9.4989H86.9807V17.6842C86.9807 18.8559 87.2672 19.7305 87.8403 20.3078C88.4133 20.8851 89.2301 21.1738 90.2907 21.1738ZM99.0691 4.55953V1.90381H95.464V4.55953H99.0691ZM99.0691 20.9429V7.06129H95.464V20.9429H99.0691ZM106.346 20.9429V13.5017C106.346 12.33 106.614 11.3699 107.148 10.6215C107.683 9.8731 108.386 9.4989 109.259 9.4989C110.909 9.4989 111.735 10.7177 111.735 13.1553V20.9429H115.327V12.129C115.327 10.3841 114.934 9.05842 114.147 8.1518C113.36 7.24518 112.231 6.79187 110.76 6.79187C109.742 6.79187 108.865 7.03135 108.13 7.51032C107.394 7.98929 106.783 8.75907 106.295 9.81964H106.244C106.244 9.5545 106.222 9.06911 106.18 8.36349C106.137 7.65786 106.103 7.2238 106.077 7.06129H102.639C102.664 7.43762 102.688 7.86313 102.709 8.33783C102.731 8.81252 102.741 9.42193 102.741 10.166V20.9429H106.346ZM124.901 21.1995C127.107 21.1995 128.835 20.5601 130.084 19.2814C131.333 18.0028 131.957 16.2387 131.957 13.9892C131.957 11.6714 131.36 9.89448 130.167 8.65857C128.974 7.42265 127.244 6.8047 124.978 6.8047C122.763 6.8047 121.039 7.44404 119.807 8.72271C118.576 10.0014 117.96 11.7569 117.96 13.9892C117.96 16.2301 118.576 17.9921 119.807 19.275C121.039 20.558 122.737 21.1995 124.901 21.1995ZM124.862 18.7362C123.853 18.7362 123.081 18.332 122.547 17.5238C122.012 16.7155 121.745 15.5373 121.745 13.9892C121.745 10.8503 122.84 9.2808 125.029 9.2808C126.055 9.2808 126.838 9.65286 127.377 10.397C127.916 11.1411 128.185 12.3385 128.185 13.9892C128.185 17.1539 127.078 18.7362 124.862 18.7362Z" fill="white"/>
<path opacity="0.595853" d="M75.7383 32.2628C76.012 32.2628 76.2655 32.2191 76.4988 32.1316C76.7321 32.0441 76.9284 31.9274 77.0877 31.7816C77.247 31.6358 77.3794 31.4877 77.4848 31.3374C77.5902 31.1871 77.6766 31.0312 77.7439 30.8697L76.9497 30.6206C76.851 30.8674 76.6929 31.0761 76.4753 31.2466C76.2576 31.4171 76.0075 31.5023 75.7248 31.5023C75.2896 31.5023 74.9419 31.3206 74.6816 30.9572C74.4214 30.5937 74.2913 30.1002 74.2913 29.4765C74.2913 28.8618 74.4203 28.3716 74.6783 28.0059C74.9363 27.6403 75.2851 27.4574 75.7248 27.4574C76.187 27.4574 76.5616 27.7154 76.8488 28.2314L77.6093 27.9824C77.4523 27.619 77.2133 27.3138 76.8925 27.0671C76.5717 26.8203 76.187 26.6969 75.7383 26.6969C75.0428 26.6969 74.4753 26.947 74.0355 27.4473C73.5958 27.9476 73.376 28.624 73.376 29.4765C73.376 30.3425 73.5992 31.0233 74.0456 31.5191C74.4921 32.0149 75.0563 32.2628 75.7383 32.2628ZM79.9312 32.2628C80.2005 32.2628 80.4416 32.218 80.6547 32.1282C80.8679 32.0385 81.0395 31.923 81.1696 31.7816C81.2997 31.6403 81.4074 31.4765 81.4927 31.2903C81.5779 31.1041 81.6374 30.9213 81.671 30.7418C81.7047 30.5623 81.7215 30.3828 81.7215 30.2034C81.7215 29.6246 81.5689 29.1355 81.2638 28.7362C80.9587 28.3368 80.5145 28.1372 79.9312 28.1372C79.3435 28.1372 78.897 28.3368 78.5919 28.7362C78.2868 29.1355 78.1343 29.6246 78.1343 30.2034C78.1343 30.3918 78.1511 30.5769 78.1847 30.7586C78.2184 30.9403 78.279 31.1243 78.3665 31.3105C78.454 31.4967 78.5639 31.6582 78.6962 31.7951C78.8286 31.9319 79.0013 32.0441 79.2145 32.1316C79.4276 32.2191 79.6665 32.2628 79.9312 32.2628ZM79.9312 31.536C79.6845 31.536 79.4691 31.426 79.2851 31.2062C79.1012 30.9863 79.0092 30.6521 79.0092 30.2034C79.0092 29.7457 79.1023 29.4081 79.2885 29.1905C79.4747 28.9729 79.689 28.8641 79.9312 28.8641C80.1735 28.8641 80.3867 28.9729 80.5706 29.1905C80.7546 29.4081 80.8466 29.7457 80.8466 30.2034C80.8466 30.6521 80.7546 30.9863 80.5706 31.2062C80.3867 31.426 80.1735 31.536 79.9312 31.536ZM83.3435 32.1417V26.6431H82.4955V32.1417H83.3435ZM85.9144 32.2628C86.1837 32.2628 86.4248 32.218 86.6379 32.1282C86.8511 32.0385 87.0227 31.923 87.1528 31.7816C87.2829 31.6403 87.3906 31.4765 87.4759 31.2903C87.5611 31.1041 87.6206 30.9213 87.6542 30.7418C87.6879 30.5623 87.7047 30.3828 87.7047 30.2034C87.7047 29.6246 87.5521 29.1355 87.247 28.7362C86.9419 28.3368 86.4977 28.1372 85.9144 28.1372C85.3267 28.1372 84.8802 28.3368 84.5751 28.7362C84.27 29.1355 84.1175 29.6246 84.1175 30.2034C84.1175 30.3918 84.1343 30.5769 84.1679 30.7586C84.2016 30.9403 84.2622 31.1243 84.3497 31.3105C84.4372 31.4967 84.5471 31.6582 84.6794 31.7951C84.8118 31.9319 84.9845 32.0441 85.1977 32.1316C85.4108 32.2191 85.6497 32.2628 85.9144 32.2628ZM85.9144 31.536C85.6677 31.536 85.4523 31.426 85.2683 31.2062C85.0844 30.9863 84.9924 30.6521 84.9924 30.2034C84.9924 29.7457 85.0855 29.4081 85.2717 29.1905C85.4579 28.9729 85.6722 28.8641 85.9144 28.8641C86.1567 28.8641 86.3699 28.9729 86.5538 29.1905C86.7378 29.4081 86.8298 29.7457 86.8298 30.2034C86.8298 30.6521 86.7378 30.9863 86.5538 31.2062C86.3699 31.426 86.1567 31.536 85.9144 31.536ZM89.2594 32.1417V30.163C89.2594 29.7861 89.3368 29.4844 89.4916 29.2578C89.6464 29.0312 89.8696 28.9179 90.1612 28.9179C90.3272 28.9179 90.4955 28.9448 90.666 28.9987V28.2247C90.5359 28.1663 90.3676 28.1372 90.1612 28.1372C89.9414 28.1372 89.7518 28.191 89.5925 28.2987C89.4332 28.4064 89.311 28.532 89.2257 28.6756V28.2583H88.4046V32.1417H89.2594ZM92.5034 32.2628C92.9924 32.2628 93.3704 32.1518 93.6374 31.9297C93.9044 31.7076 94.0379 31.4373 94.0379 31.1187C94.0379 30.6027 93.6385 30.2168 92.8399 29.9611C92.8174 29.9521 92.7815 29.9409 92.7322 29.9274C92.5437 29.8646 92.3979 29.813 92.2947 29.7726C92.1915 29.7323 92.0917 29.6683 91.9952 29.5808C91.8988 29.4933 91.8505 29.3935 91.8505 29.2813C91.8505 29.1467 91.9055 29.0379 92.0154 28.9549C92.1253 28.8719 92.2835 28.8304 92.4899 28.8304C92.8668 28.8304 93.1876 29.0121 93.4523 29.3756L94.0177 29.0323C93.8786 28.7721 93.6677 28.5578 93.385 28.3896C93.1024 28.2213 92.8017 28.1372 92.4832 28.1372C92.0569 28.1372 91.7002 28.2404 91.4131 28.4468C91.1259 28.6532 90.9823 28.9269 90.9823 29.2679C90.9823 29.4429 91.0137 29.5965 91.0765 29.7289C91.1394 29.8613 91.2313 29.9712 91.3525 30.0587C91.4736 30.1462 91.5892 30.2157 91.6991 30.2673C91.809 30.3189 91.9448 30.3716 92.1063 30.4255C92.1242 30.43 92.1534 30.4389 92.1938 30.4524C92.4181 30.5242 92.5864 30.5814 92.6985 30.624C92.8107 30.6666 92.9173 30.7306 93.0182 30.8158C93.1192 30.9011 93.1697 30.9998 93.1697 31.112C93.1697 31.251 93.108 31.3621 92.9846 31.4451C92.8612 31.5281 92.6941 31.5696 92.4832 31.5696C92.0524 31.5696 91.7025 31.3722 91.4333 30.9774L90.8208 31.3341C90.9778 31.6212 91.2033 31.8478 91.4972 32.0138C91.7911 32.1798 92.1265 32.2628 92.5034 32.2628ZM97.9616 32.2628C98.2308 32.2628 98.472 32.218 98.6851 32.1282C98.8982 32.0385 99.0699 31.923 99.2 31.7816C99.3301 31.6403 99.4378 31.4765 99.523 31.2903C99.6083 31.1041 99.6677 30.9213 99.7014 30.7418C99.735 30.5623 99.7519 30.3828 99.7519 30.2034C99.7519 29.6246 99.5993 29.1355 99.2942 28.7362C98.9891 28.3368 98.5449 28.1372 97.9616 28.1372C97.3738 28.1372 96.9274 28.3368 96.6223 28.7362C96.3172 29.1355 96.1646 29.6246 96.1646 30.2034C96.1646 30.3918 96.1814 30.5769 96.2151 30.7586C96.2488 30.9403 96.3093 31.1243 96.3968 31.3105C96.4843 31.4967 96.5942 31.6582 96.7266 31.7951C96.859 31.9319 97.0317 32.0441 97.2448 32.1316C97.458 32.2191 97.6969 32.2628 97.9616 32.2628ZM97.9616 31.536C97.7148 31.536 97.4995 31.426 97.3155 31.2062C97.1315 30.9863 97.0396 30.6521 97.0396 30.2034C97.0396 29.7457 97.1327 29.4081 97.3189 29.1905C97.5051 28.9729 97.7193 28.8641 97.9616 28.8641C98.2039 28.8641 98.417 28.9729 98.601 29.1905C98.7849 29.4081 98.8769 29.7457 98.8769 30.2034C98.8769 30.6521 98.7849 30.9863 98.601 31.2062C98.417 31.426 98.2039 31.536 97.9616 31.536ZM101.603 32.1417V28.9852H102.41V28.2583H101.603V27.9016C101.603 27.7132 101.635 27.5763 101.7 27.4911C101.765 27.4058 101.867 27.3632 102.006 27.3632H102.498V26.6431H101.885C101.522 26.6431 101.24 26.7429 101.041 26.9426C100.841 27.1422 100.741 27.4417 100.741 27.8411V28.2583H100.149V28.9852H100.741V32.1417H101.603ZM104.894 33.73C105.23 33.73 105.512 33.6493 105.738 33.4877C105.965 33.3262 106.15 33.048 106.294 32.6532L107.902 28.2583H106.973L106.361 30.2572C106.217 30.7732 106.134 31.0716 106.112 31.1523H106.085C106.027 30.9235 105.941 30.6251 105.829 30.2572L105.163 28.2583H104.227L105.681 32.0475L105.553 32.4311C105.477 32.6465 105.375 32.7979 105.247 32.8854C105.119 32.9729 104.954 33.0166 104.752 33.0166H104.631V33.73H104.894ZM109.989 32.2628C110.258 32.2628 110.499 32.218 110.712 32.1282C110.925 32.0385 111.097 31.923 111.227 31.7816C111.357 31.6403 111.465 31.4765 111.55 31.2903C111.635 31.1041 111.695 30.9213 111.728 30.7418C111.762 30.5623 111.779 30.3828 111.779 30.2034C111.779 29.6246 111.626 29.1355 111.321 28.7362C111.016 28.3368 110.572 28.1372 109.989 28.1372C109.401 28.1372 108.954 28.3368 108.649 28.7362C108.344 29.1355 108.192 29.6246 108.192 30.2034C108.192 30.3918 108.208 30.5769 108.242 30.7586C108.276 30.9403 108.336 31.1243 108.424 31.3105C108.511 31.4967 108.621 31.6582 108.754 31.7951C108.886 31.9319 109.059 32.0441 109.272 32.1316C109.485 32.2191 109.724 32.2628 109.989 32.2628ZM109.989 31.536C109.742 31.536 109.526 31.426 109.342 31.2062C109.159 30.9863 109.067 30.6521 109.067 30.2034C109.067 29.7457 109.16 29.4081 109.346 29.1905C109.532 28.9729 109.746 28.8641 109.989 28.8641C110.231 28.8641 110.444 28.9729 110.628 29.1905C110.812 29.4081 110.904 29.7457 110.904 30.2034C110.904 30.6521 110.812 30.9863 110.628 31.2062C110.444 31.426 110.231 31.536 109.989 31.536ZM113.737 32.2628C114.002 32.2628 114.223 32.2023 114.4 32.0811C114.577 31.96 114.698 31.8299 114.76 31.6908H114.767V32.1417H115.588V28.2583H114.74V30.4322C114.74 30.7328 114.668 30.9919 114.525 31.2095C114.381 31.4272 114.182 31.536 113.926 31.536C113.5 31.536 113.286 31.2331 113.286 30.6274V28.2583H112.432V30.7351C112.432 31.0267 112.472 31.278 112.553 31.4889C112.634 31.6997 112.741 31.8579 112.876 31.9633C113.01 32.0688 113.148 32.1451 113.29 32.1922C113.431 32.2393 113.58 32.2628 113.737 32.2628ZM117.372 32.1417V30.163C117.372 29.7861 117.449 29.4844 117.604 29.2578C117.759 29.0312 117.982 28.9179 118.274 28.9179C118.44 28.9179 118.608 28.9448 118.778 28.9987V28.2247C118.648 28.1663 118.48 28.1372 118.274 28.1372C118.054 28.1372 117.864 28.191 117.705 28.2987C117.546 28.4064 117.423 28.532 117.338 28.6756V28.2583H116.517V32.1417H117.372ZM121.827 32.1417V26.6431H120.979V32.1417H121.827ZM123.786 27.6795V26.744H122.87V27.6795H123.786ZM123.752 32.1417V28.2583H122.911V32.1417H123.752ZM125.912 32.1417V28.9852H126.72V28.2583H125.912V27.9016C125.912 27.7132 125.945 27.5763 126.01 27.4911C126.075 27.4058 126.177 27.3632 126.316 27.3632H126.807V26.6431H126.195C125.832 26.6431 125.55 26.7429 125.35 26.9426C125.151 27.1422 125.051 27.4417 125.051 27.8411V28.2583H124.459V28.9852H125.051V32.1417H125.912ZM128.894 32.2628C129.316 32.2628 129.668 32.1664 129.951 31.9734C130.233 31.7805 130.437 31.5404 130.563 31.2533L129.85 31.011C129.764 31.177 129.64 31.3127 129.476 31.4182C129.312 31.5236 129.123 31.5763 128.907 31.5763C128.598 31.5763 128.354 31.4698 128.177 31.2567C128 31.0435 127.911 30.7889 127.911 30.4928H130.603C130.617 30.3806 130.624 30.2662 130.624 30.1495C130.624 29.5528 130.458 29.0682 130.125 28.6958C129.793 28.3234 129.372 28.1372 128.86 28.1372C128.34 28.1372 127.908 28.3223 127.565 28.6924C127.221 29.0626 127.05 29.5595 127.05 30.1832C127.05 30.8158 127.221 31.3206 127.565 31.6975C127.908 32.0744 128.351 32.2628 128.894 32.2628ZM129.755 29.8938H127.925C127.929 29.6066 128.016 29.3565 128.184 29.1434C128.352 28.9302 128.578 28.8237 128.86 28.8237C129.143 28.8237 129.363 28.928 129.52 29.1366C129.677 29.3453 129.755 29.5976 129.755 29.8938Z" fill="white"/>
<path d="M8.09212 5.04402L8.09212 31.8482C8.09199 32.1047 7.95989 32.342 7.74479 32.4722C7.5297 32.6023 7.2637 32.6058 7.04543 32.4814L0.701861 28.8592C0.477958 28.7315 0.338999 28.4892 0.338867 28.226L0.338867 1.42184C0.338995 1.16532 0.471103 0.927992 0.686197 0.797878C0.90129 0.667765 1.16729 0.664268 1.38556 0.788681L7.72913 4.41087C7.95303 4.53849 8.09199 4.78087 8.09212 5.04402Z" fill="white"/>
<path d="M18.43 5.045L18.43 31.8492C18.4299 32.1057 18.2978 32.343 18.0827 32.4731C17.8676 32.6032 17.6016 32.6067 17.3833 32.4823L11.0398 28.8601C10.8158 28.7325 10.6769 28.4901 10.6768 28.227L10.6768 1.42281C10.6769 1.16629 10.809 0.928968 11.0241 0.798855C11.2392 0.668741 11.5052 0.665245 11.7234 0.789658L18.067 4.41184C18.2909 4.53947 18.4299 4.78185 18.43 5.045Z" fill="white"/>
<path d="M28.766 5.045L28.766 31.8492C28.7658 32.1057 28.6337 32.343 28.4186 32.4731C28.2035 32.6032 27.9375 32.6067 27.7193 32.4823L21.3757 28.8601C21.1518 28.7325 21.0128 28.4901 21.0127 28.227L21.0127 1.42281C21.0128 1.16629 21.1449 0.928968 21.36 0.798855C21.5751 0.668741 21.8411 0.665245 22.0594 0.789658L28.403 4.41184C28.6269 4.53947 28.7658 4.78185 28.766 5.045Z" fill="white"/>
</svg>
