<svg width="115" height="35" viewBox="0 0 115 35" fill="none" xmlns="http://www.w3.org/2000/svg">
<path d="M39.7237 21.9099V13.8816H41.5791C42.9716 13.8816 44.1579 13.3837 45.1381 12.3879C46.1184 11.3922 46.6085 10.1941 46.6085 8.79384V5.70154C46.6085 4.24679 46.1767 3.04877 45.3132 2.10746C44.3874 1.11948 43.1427 0.625488 41.5791 0.625488H36.5264V21.9099H39.7237ZM41.6608 10.7076H39.7237V3.9045H41.6608C42.2209 3.9045 42.6662 4.0737 42.9969 4.4121C43.3275 4.75051 43.4928 5.19977 43.4928 5.75988V8.86386C43.4928 9.36952 43.3158 9.80322 42.9619 10.165C42.6079 10.5267 42.1742 10.7076 41.6608 10.7076ZM51.7054 21.9099L52.4872 17.0205H55.8362L56.5947 21.9099H59.9554L56.3964 0.625488H51.9738L48.368 21.9099H51.7054ZM55.3578 13.8932H52.9773L54.1676 5.50316L55.3578 13.8932ZM67.1178 21.9099V13.8816H68.9732C70.3657 13.8816 71.552 13.3837 72.5322 12.3879C73.5124 11.3922 74.0025 10.1941 74.0025 8.79384V5.70154C74.0025 4.24679 73.5708 3.04877 72.7073 2.10746C71.7815 1.11948 70.5368 0.625488 68.9732 0.625488H63.9205V21.9099H67.1178ZM69.0548 10.7076H67.1178V3.9045H69.0548C69.615 3.9045 70.0603 4.0737 70.391 4.4121C70.7216 4.75051 70.8869 5.19977 70.8869 5.75988V8.86386C70.8869 9.36952 70.7099 9.80322 70.3559 10.165C70.002 10.5267 69.5683 10.7076 69.0548 10.7076ZM86.9528 21.9099V18.7009H81.0249V12.878H85.3541V9.65736H81.0249V3.83449H86.9528V0.625488H77.8275V21.9099H86.9528ZM93.625 21.9099V13.8816H95.4687C95.5699 13.8816 95.6671 13.8777 95.7605 13.8699L97.7209 21.9099H101.187L98.8061 12.6096C99.9497 11.575 100.521 10.303 100.521 8.79384V5.70154C100.521 4.169 100.152 2.97097 99.4129 2.10746C98.5805 1.11948 97.2697 0.625488 95.4804 0.625488H90.4277V21.9099H93.625ZM95.5621 10.7076H93.625V3.9045H95.5621C96.7834 3.9045 97.3941 4.52296 97.3941 5.75988V8.86386C97.3941 9.36952 97.2171 9.80322 96.8632 10.165C96.5092 10.5267 96.0755 10.7076 95.5621 10.7076ZM114.37 21.9099V18.7242H108.466L114.37 3.83449V0.625488H105.012V3.83449H110.928L105.012 18.7242V21.9099H114.37Z" fill="white"/>
<path d="M38.8956 32.8105V32.3426H36.5787V27.6636H36.0127V32.8105H38.8956ZM41.0313 32.9313C41.4036 32.9313 41.7256 32.8571 41.9973 32.7087C42.269 32.5602 42.4879 32.3552 42.6539 32.0936L42.2464 31.8219C42.1256 32.0232 41.9659 32.1804 41.7672 32.2936C41.5684 32.4068 41.3181 32.4634 41.0162 32.4634C40.6439 32.4634 40.3496 32.3351 40.1333 32.0785C39.9169 31.8219 39.7987 31.5125 39.7786 31.1502H42.6841C42.6891 31.0999 42.6916 31.027 42.6916 30.9314C42.6916 30.5993 42.6187 30.2987 42.4728 30.0295C42.3269 29.7604 42.1256 29.5478 41.869 29.3918C41.6124 29.2359 41.3257 29.1579 41.0087 29.1579C40.6716 29.1579 40.371 29.2384 40.1068 29.3994C39.8427 29.5604 39.6364 29.7843 39.488 30.071C39.3396 30.3578 39.2654 30.6823 39.2654 31.0446C39.2654 31.4068 39.3408 31.7313 39.4918 32.0181C39.6427 32.3049 39.8515 32.5288 40.1182 32.6898C40.3848 32.8508 40.6892 32.9313 41.0313 32.9313ZM42.1785 30.7276H39.8087C39.8641 30.4106 39.9962 30.1478 40.205 29.939C40.4138 29.7302 40.6817 29.6258 41.0087 29.6258C41.3458 29.6258 41.6124 29.7176 41.8087 29.9012C42.0049 30.0849 42.1281 30.3603 42.1785 30.7276ZM44.9859 32.9313C45.2374 32.9313 45.4689 32.8747 45.6802 32.7615C45.8915 32.6483 46.0701 32.4911 46.216 32.2898V32.8105H46.7292V29.2786H46.216V29.8069C46.0701 29.6006 45.8902 29.4409 45.6764 29.3277C45.4626 29.2145 45.2274 29.1579 44.9708 29.1579C44.6337 29.1579 44.3331 29.2384 44.0689 29.3994C43.8048 29.5604 43.5985 29.783 43.4501 30.0673C43.3017 30.3515 43.2275 30.6748 43.2275 31.037C43.2275 31.4043 43.3029 31.7313 43.4539 32.0181C43.6048 32.3049 43.8136 32.5288 44.0803 32.6898C44.3469 32.8508 44.6488 32.9313 44.9859 32.9313ZM44.9708 32.4634C44.7343 32.4634 44.523 32.403 44.3368 32.2823C44.1507 32.1615 44.0048 31.993 43.8991 31.7766C43.7935 31.5603 43.7406 31.3137 43.7406 31.037C43.7406 30.7653 43.7935 30.5226 43.8991 30.3088C44.0048 30.0949 44.1507 29.9276 44.3368 29.8069C44.523 29.6862 44.7343 29.6258 44.9708 29.6258C45.2123 29.6258 45.4274 29.6862 45.616 29.8069C45.8047 29.9276 45.9519 30.0962 46.0575 30.3125C46.1632 30.5289 46.216 30.7729 46.216 31.0446C46.216 31.3163 46.1632 31.5603 46.0575 31.7766C45.9519 31.993 45.8047 32.1615 45.616 32.2823C45.4274 32.403 45.2123 32.4634 44.9708 32.4634ZM49.2196 32.9313C49.4712 32.9313 49.7026 32.8747 49.9139 32.7615C50.1253 32.6483 50.3039 32.4911 50.4498 32.2898V32.8105H50.963V27.3315H50.4498V29.8069C50.3039 29.6006 50.124 29.4409 49.9102 29.3277C49.6963 29.2145 49.4611 29.1579 49.2045 29.1579C48.8675 29.1579 48.5668 29.2384 48.3027 29.3994C48.0386 29.5604 47.8323 29.783 47.6839 30.0673C47.5354 30.3515 47.4612 30.6748 47.4612 31.037C47.4612 31.4043 47.5367 31.7313 47.6876 32.0181C47.8386 32.3049 48.0474 32.5288 48.314 32.6898C48.5807 32.8508 48.8825 32.9313 49.2196 32.9313ZM49.2045 32.4634C48.9681 32.4634 48.7568 32.403 48.5706 32.2823C48.3845 32.1615 48.2386 31.993 48.1329 31.7766C48.0272 31.5603 47.9744 31.3137 47.9744 31.037C47.9744 30.7653 48.0272 30.5226 48.1329 30.3088C48.2386 30.0949 48.3845 29.9276 48.5706 29.8069C48.7568 29.6862 48.9681 29.6258 49.2045 29.6258C49.446 29.6258 49.6611 29.6862 49.8498 29.8069C50.0385 29.9276 50.1856 30.0962 50.2913 30.3125C50.3969 30.5289 50.4498 30.7729 50.4498 31.0446C50.4498 31.3163 50.3969 31.5603 50.2913 31.7766C50.1856 31.993 50.0385 32.1615 49.8498 32.2823C49.6611 32.403 49.446 32.4634 49.2045 32.4634ZM52.4497 28.5919C52.5604 28.5919 52.656 28.5516 52.7365 28.4711C52.817 28.3906 52.8572 28.295 52.8572 28.1843C52.8572 28.0686 52.817 27.9718 52.7365 27.8938C52.656 27.8158 52.5604 27.7768 52.4497 27.7768C52.334 27.7768 52.2371 27.8158 52.1591 27.8938C52.0811 27.9718 52.0421 28.0661 52.0421 28.1768C52.0421 28.2925 52.0811 28.3906 52.1591 28.4711C52.2371 28.5516 52.334 28.5919 52.4497 28.5919ZM52.7063 32.8105V29.2786H52.1931V32.8105H52.7063ZM54.4496 32.8105V31.0446C54.4496 30.6119 54.5401 30.2673 54.7213 30.0107C54.9024 29.7541 55.1741 29.6258 55.5363 29.6258C56.1602 29.6258 56.4721 29.9754 56.4721 30.6748V32.8105H56.9853V30.4484C56.9853 30.1817 56.9237 29.9503 56.8004 29.7541C56.6772 29.5579 56.5111 29.4094 56.3023 29.3088C56.0935 29.2082 55.8659 29.1579 55.6193 29.1579C55.3577 29.1579 55.1275 29.2195 54.9288 29.3428C54.7301 29.466 54.5703 29.6409 54.4496 29.8673V29.2786H53.9364V32.8105H54.4496ZM59.7173 34.3199C60.0191 34.3199 60.2883 34.2495 60.5248 34.1086C60.7612 33.9677 60.9449 33.7728 61.0757 33.5237C61.2065 33.2747 61.2719 32.9917 61.2719 32.6747V29.2786H60.7587V29.8069C60.6128 29.6006 60.433 29.4409 60.2191 29.3277C60.0053 29.2145 59.7701 29.1579 59.5135 29.1579C59.1764 29.1579 58.8758 29.2384 58.6117 29.3994C58.3475 29.5604 58.1412 29.783 57.9928 30.0673C57.8444 30.3515 57.7702 30.6748 57.7702 31.037C57.7702 31.4043 57.8457 31.7313 57.9966 32.0181C58.1475 32.3049 58.3563 32.5288 58.623 32.6898C58.8896 32.8508 59.1915 32.9313 59.5286 32.9313C59.7802 32.9313 60.0116 32.8747 60.2229 32.7615C60.4342 32.6483 60.6128 32.4911 60.7587 32.2898V32.6747C60.7587 33.0168 60.6619 33.2986 60.4682 33.5199C60.2745 33.7413 60.0242 33.852 59.7173 33.852H58.2532V34.3199H59.7173ZM59.5135 32.4634C59.277 32.4634 59.0657 32.403 58.8796 32.2823C58.6934 32.1615 58.5475 31.993 58.4419 31.7766C58.3362 31.5603 58.2834 31.3137 58.2834 31.037C58.2834 30.7653 58.3362 30.5226 58.4419 30.3088C58.5475 30.0949 58.6934 29.9276 58.8796 29.8069C59.0657 29.6862 59.277 29.6258 59.5135 29.6258C59.755 29.6258 59.9701 29.6862 60.1588 29.8069C60.3474 29.9276 60.4946 30.0962 60.6002 30.3125C60.7059 30.5289 60.7587 30.7729 60.7587 31.0446C60.7587 31.3163 60.7059 31.5603 60.6002 31.7766C60.4946 31.993 60.3474 32.1615 60.1588 32.2823C59.9701 32.403 59.755 32.4634 59.5135 32.4634ZM64.6001 32.8105V30.8408H65.6944C66.1723 30.8408 66.5559 30.6999 66.8452 30.4182C67.1345 30.1364 67.2792 29.749 67.2792 29.256C67.2792 28.7579 67.1408 28.368 66.8641 28.0862C66.5874 27.8045 66.2176 27.6636 65.7547 27.6636H64.034V32.8105H64.6001ZM65.6793 30.3729H64.6001V28.1315H65.6793C66.0163 28.1315 66.2729 28.2271 66.449 28.4183C66.6251 28.6095 66.7132 28.8887 66.7132 29.256C66.7132 29.6233 66.6251 29.9012 66.449 30.0899C66.2729 30.2786 66.0163 30.3729 65.6793 30.3729ZM69.4829 32.9313C69.7344 32.9313 69.9659 32.8747 70.1772 32.7615C70.3885 32.6483 70.5671 32.4911 70.713 32.2898V32.8105H71.2262V29.2786H70.713V29.8069C70.5671 29.6006 70.3872 29.4409 70.1734 29.3277C69.9596 29.2145 69.7244 29.1579 69.4678 29.1579C69.1307 29.1579 68.8301 29.2384 68.5659 29.3994C68.3018 29.5604 68.0955 29.783 67.9471 30.0673C67.7987 30.3515 67.7244 30.6748 67.7244 31.037C67.7244 31.4043 67.7999 31.7313 67.9509 32.0181C68.1018 32.3049 68.3106 32.5288 68.5772 32.6898C68.8439 32.8508 69.1458 32.9313 69.4829 32.9313ZM69.4678 32.4634C69.2313 32.4634 69.02 32.403 68.8338 32.2823C68.6477 32.1615 68.5018 31.993 68.3961 31.7766C68.2905 31.5603 68.2376 31.3137 68.2376 31.037C68.2376 30.7653 68.2905 30.5226 68.3961 30.3088C68.5018 30.0949 68.6477 29.9276 68.8338 29.8069C69.02 29.6862 69.2313 29.6258 69.4678 29.6258C69.7093 29.6258 69.9243 29.6862 70.113 29.8069C70.3017 29.9276 70.4488 30.0962 70.5545 30.3125C70.6602 30.5289 70.713 30.7729 70.713 31.0446C70.713 31.3163 70.6602 31.5603 70.5545 31.7766C70.4488 31.993 70.3017 32.1615 70.113 32.2823C69.9243 32.403 69.7093 32.4634 69.4678 32.4634ZM72.6978 34.3199V32.2823C72.8437 32.4885 73.0236 32.6483 73.2374 32.7615C73.4512 32.8747 73.6864 32.9313 73.943 32.9313C74.2801 32.9313 74.5807 32.8508 74.8449 32.6898C75.109 32.5288 75.3153 32.3062 75.4637 32.0219C75.6121 31.7376 75.6863 31.4144 75.6863 31.0521C75.6863 30.6848 75.6109 30.3578 75.4599 30.071C75.309 29.7843 75.1002 29.5604 74.8336 29.3994C74.5669 29.2384 74.265 29.1579 73.9279 29.1579C73.6764 29.1579 73.4449 29.2145 73.2336 29.3277C73.0223 29.4409 72.8437 29.5981 72.6978 29.7994V29.2786H72.1846V34.3199H72.6978ZM73.943 32.4634C73.7015 32.4634 73.4864 32.403 73.2978 32.2823C73.1091 32.1615 72.9619 31.993 72.8563 31.7766C72.7506 31.5603 72.6978 31.3163 72.6978 31.0446C72.6978 30.7729 72.7506 30.5289 72.8563 30.3125C72.9619 30.0962 73.1091 29.9276 73.2978 29.8069C73.4864 29.6862 73.7015 29.6258 73.943 29.6258C74.1795 29.6258 74.3908 29.6862 74.577 29.8069C74.7631 29.9276 74.909 30.0962 75.0147 30.3125C75.1203 30.5289 75.1732 30.7754 75.1732 31.0521C75.1732 31.3238 75.1203 31.5666 75.0147 31.7804C74.909 31.9942 74.7631 32.1615 74.577 32.2823C74.3908 32.403 74.1795 32.4634 73.943 32.4634ZM77.9579 32.9313C78.3302 32.9313 78.6522 32.8571 78.9239 32.7087C79.1956 32.5602 79.4145 32.3552 79.5805 32.0936L79.173 31.8219C79.0522 32.0232 78.8925 32.1804 78.6938 32.2936C78.495 32.4068 78.2447 32.4634 77.9428 32.4634C77.5705 32.4634 77.2762 32.3351 77.0599 32.0785C76.8435 31.8219 76.7253 31.5125 76.7052 31.1502H79.6107C79.6157 31.0999 79.6182 31.027 79.6182 30.9314C79.6182 30.5993 79.5453 30.2987 79.3994 30.0295C79.2535 29.7604 79.0522 29.5478 78.7956 29.3918C78.539 29.2359 78.2523 29.1579 77.9353 29.1579C77.5982 29.1579 77.2976 29.2384 77.0335 29.3994C76.7693 29.5604 76.563 29.7843 76.4146 30.071C76.2662 30.3578 76.192 30.6823 76.192 31.0446C76.192 31.4068 76.2675 31.7313 76.4184 32.0181C76.5693 32.3049 76.7781 32.5288 77.0448 32.6898C77.3114 32.8508 77.6158 32.9313 77.9579 32.9313ZM79.1051 30.7276H76.7354C76.7907 30.4106 76.9228 30.1478 77.1316 29.939C77.3404 29.7302 77.6083 29.6258 77.9353 29.6258C78.2724 29.6258 78.539 29.7176 78.7353 29.9012C78.9315 30.0849 79.0547 30.3603 79.1051 30.7276ZM80.8861 32.8105V31.12C80.8861 30.8081 80.9427 30.5377 81.0559 30.3088C81.1691 30.0798 81.3188 29.905 81.5049 29.7843C81.6911 29.6635 81.8923 29.6031 82.1087 29.6031C82.2345 29.6031 82.3502 29.6283 82.4558 29.6786V29.2107C82.3452 29.1755 82.2294 29.1579 82.1087 29.1579C81.8471 29.1579 81.6119 29.2308 81.4031 29.3767C81.1943 29.5226 81.0219 29.7264 80.8861 29.988V29.2786H80.3729V32.8105H80.8861ZM86.6519 32.9313C87.0644 32.9313 87.4204 32.8281 87.7198 32.6219C88.0191 32.4156 88.2594 32.1162 88.4405 31.7238L87.965 31.437C87.794 31.7741 87.6091 32.0219 87.4103 32.1804C87.2116 32.3389 86.9336 32.4181 86.5764 32.4181C86.2896 32.4181 86.0381 32.3313 85.8217 32.1577C85.6054 31.9842 85.4394 31.7339 85.3236 31.4068C85.2079 31.0798 85.1501 30.6924 85.1501 30.2446C85.1501 29.5604 85.2771 29.0258 85.5312 28.6409C85.7853 28.256 86.1362 28.0636 86.584 28.0636C86.8959 28.0636 87.16 28.1277 87.3764 28.256C87.5927 28.3843 87.7814 28.5969 87.9424 28.8937L88.3952 28.6296C88.2241 28.2875 87.9864 28.0221 87.682 27.8334C87.3776 27.6447 87.0116 27.5504 86.584 27.5504C86.1664 27.5504 85.8054 27.6573 85.501 27.8711C85.1966 28.085 84.9627 28.3944 84.7991 28.7994C84.6356 29.2044 84.5539 29.6887 84.5539 30.2522C84.5539 30.8106 84.6381 31.2899 84.8067 31.6898C84.9752 32.0898 85.2167 32.3967 85.5312 32.6105C85.8456 32.8244 86.2192 32.9313 86.6519 32.9313ZM90.7196 32.9313C91.0567 32.9313 91.3573 32.8508 91.6215 32.6898C91.8856 32.5288 92.0919 32.3049 92.2403 32.0181C92.3887 31.7313 92.4629 31.4068 92.4629 31.0446C92.4629 30.6823 92.3875 30.3578 92.2365 30.071C92.0856 29.7843 91.8768 29.5604 91.6101 29.3994C91.3435 29.2384 91.0416 29.1579 90.7045 29.1579C90.3674 29.1579 90.0668 29.2384 89.8027 29.3994C89.5385 29.5604 89.3323 29.783 89.1838 30.0673C89.0354 30.3515 88.9612 30.6748 88.9612 31.037C88.9612 31.3993 89.0367 31.7251 89.1876 32.0143C89.3386 32.3036 89.5473 32.5288 89.814 32.6898C90.0807 32.8508 90.3825 32.9313 90.7196 32.9313ZM90.7045 32.4634C90.4681 32.4634 90.2567 32.403 90.0706 32.2823C89.8844 32.1615 89.7385 31.993 89.6329 31.7766C89.5272 31.5603 89.4744 31.3137 89.4744 31.037C89.4744 30.7653 89.5272 30.5226 89.6329 30.3088C89.7385 30.0949 89.8844 29.9276 90.0706 29.8069C90.2567 29.6862 90.4681 29.6258 90.7045 29.6258C90.946 29.6258 91.1611 29.6862 91.3498 29.8069C91.5384 29.9276 91.6856 30.0962 91.7913 30.3125C91.8969 30.5289 91.9497 30.7729 91.9497 31.0446C91.9497 31.3163 91.8969 31.5603 91.7913 31.7766C91.6856 31.993 91.5384 32.1615 91.3498 32.2823C91.1611 32.403 90.946 32.4634 90.7045 32.4634ZM93.7006 32.8105V31.0446C93.7006 30.6119 93.7773 30.2673 93.9308 30.0107C94.0842 29.7541 94.3144 29.6258 94.6213 29.6258C94.8477 29.6258 95.0314 29.7075 95.1722 29.871C95.3131 30.0346 95.3836 30.3025 95.3836 30.6748V32.8105H95.8967V30.8182C95.9219 30.4509 96.0112 30.1603 96.1647 29.9465C96.3181 29.7327 96.5332 29.6258 96.8099 29.6258C97.0363 29.6258 97.2199 29.7075 97.3608 29.871C97.5017 30.0346 97.5721 30.3025 97.5721 30.6748V32.8105H98.0853V30.4484C98.0853 30.0459 97.9771 29.7302 97.7608 29.5013C97.5445 29.2723 97.2728 29.1579 96.9457 29.1579C96.6942 29.1579 96.4728 29.2283 96.2816 29.3692C96.0904 29.5101 95.9395 29.7063 95.8288 29.9578C95.7533 29.7012 95.62 29.5038 95.4288 29.3654C95.2376 29.2271 95.0138 29.1579 94.7572 29.1579C94.5257 29.1579 94.3207 29.2157 94.1421 29.3315C93.9635 29.4472 93.8163 29.6132 93.7006 29.8295V29.2786H93.1874V32.8105H93.7006ZM99.5192 34.3199V32.2823C99.6651 32.4885 99.845 32.6483 100.059 32.7615C100.273 32.8747 100.508 32.9313 100.764 32.9313C101.102 32.9313 101.402 32.8508 101.666 32.6898C101.93 32.5288 102.137 32.3062 102.285 32.0219C102.434 31.7376 102.508 31.4144 102.508 31.0521C102.508 30.6848 102.432 30.3578 102.281 30.071C102.13 29.7843 101.922 29.5604 101.655 29.3994C101.388 29.2384 101.086 29.1579 100.749 29.1579C100.498 29.1579 100.266 29.2145 100.055 29.3277C99.8437 29.4409 99.6651 29.5981 99.5192 29.7994V29.2786H99.006V34.3199H99.5192ZM100.764 32.4634C100.523 32.4634 100.308 32.403 100.119 32.2823C99.9305 32.1615 99.7834 31.993 99.6777 31.7766C99.572 31.5603 99.5192 31.3163 99.5192 31.0446C99.5192 30.7729 99.572 30.5289 99.6777 30.3125C99.7834 30.0962 99.9305 29.9276 100.119 29.8069C100.308 29.6862 100.523 29.6258 100.764 29.6258C101.001 29.6258 101.212 29.6862 101.398 29.8069C101.585 29.9276 101.73 30.0962 101.836 30.3125C101.942 30.5289 101.995 30.7754 101.995 31.0521C101.995 31.3238 101.942 31.5666 101.836 31.7804C101.73 31.9942 101.585 32.1615 101.398 32.2823C101.212 32.403 101.001 32.4634 100.764 32.4634ZM104.772 32.9313C105.023 32.9313 105.255 32.8747 105.466 32.7615C105.677 32.6483 105.856 32.4911 106.002 32.2898V32.8105H106.515V29.2786H106.002V29.8069C105.856 29.6006 105.676 29.4409 105.462 29.3277C105.249 29.2145 105.013 29.1579 104.757 29.1579C104.42 29.1579 104.119 29.2384 103.855 29.3994C103.591 29.5604 103.384 29.783 103.236 30.0673C103.088 30.3515 103.013 30.6748 103.013 31.037C103.013 31.4043 103.089 31.7313 103.24 32.0181C103.391 32.3049 103.6 32.5288 103.866 32.6898C104.133 32.8508 104.435 32.9313 104.772 32.9313ZM104.757 32.4634C104.52 32.4634 104.309 32.403 104.123 32.2823C103.937 32.1615 103.791 31.993 103.685 31.7766C103.579 31.5603 103.527 31.3137 103.527 31.037C103.527 30.7653 103.579 30.5226 103.685 30.3088C103.791 30.0949 103.937 29.9276 104.123 29.8069C104.309 29.6862 104.52 29.6258 104.757 29.6258C104.998 29.6258 105.213 29.6862 105.402 29.8069C105.591 29.9276 105.738 30.0962 105.843 30.3125C105.949 30.5289 106.002 30.7729 106.002 31.0446C106.002 31.3163 105.949 31.5603 105.843 31.7766C105.738 31.993 105.591 32.1615 105.402 32.2823C105.213 32.403 104.998 32.4634 104.757 32.4634ZM107.979 32.8105V31.0446C107.979 30.6119 108.07 30.2673 108.251 30.0107C108.432 29.7541 108.704 29.6258 109.066 29.6258C109.69 29.6258 110.002 29.9754 110.002 30.6748V32.8105H110.515V30.4484C110.515 30.1817 110.453 29.9503 110.33 29.7541C110.207 29.5579 110.041 29.4094 109.832 29.3088C109.623 29.2082 109.395 29.1579 109.149 29.1579C108.887 29.1579 108.657 29.2195 108.458 29.3428C108.26 29.466 108.1 29.6409 107.979 29.8673V29.2786H107.466V32.8105H107.979ZM112.522 34.3199L114.432 29.2786H113.949L112.824 32.2068L111.655 29.2786H111.119L112.568 32.8785L112.009 34.3199H112.522Z" fill="white"/>
<path fill-rule="evenodd" clip-rule="evenodd" d="M18.2287 5.55762V30.0422C16.2913 31.2353 13.9848 32.2182 11.4363 32.8633C9.332 33.3967 7.2641 33.6486 5.33121 33.6486C3.46757 33.6486 1.72949 33.4146 0.200195 32.9711V8.4867C0.201017 8.4867 0.202456 8.48732 0.203278 8.48732C0.772705 8.65211 1.3709 8.78818 1.99438 8.89391C2.5712 8.99199 3.1694 9.06406 3.78547 9.10845C4.28935 9.14603 4.80514 9.16482 5.33121 9.16482C7.26492 9.16482 9.332 8.91208 11.4363 8.37933C13.9848 7.73342 16.2913 6.75135 18.2287 5.55762ZM14.6461 11.1785C14.4947 11.2301 14.3424 11.2806 14.1895 11.3299L14.6461 11.3297L14.6461 11.1785Z" fill="white"/>
<path fill-rule="evenodd" clip-rule="evenodd" d="M24.9383 0.107422V27.1501C22.7756 28.4678 20.201 29.5534 17.3561 30.2659C15.0071 30.855 12.6988 31.1333 10.5411 31.1333C8.46078 31.1333 6.5206 30.8749 4.81348 30.385V3.34253C4.81439 3.34253 4.816 3.34322 4.81692 3.34322C5.45256 3.52521 6.12031 3.67551 6.81628 3.79228C7.46018 3.90061 8.12794 3.98021 8.81565 4.02924C9.37811 4.07075 9.95388 4.0915 10.5411 4.0915C12.6997 4.0915 15.0071 3.81235 17.3561 3.22394C20.201 2.51055 22.7756 1.42587 24.9383 0.107422Z" fill="white"/>
</svg>
