<svg width="107" height="27" viewBox="0 0 107 27" fill="none" xmlns="http://www.w3.org/2000/svg">
<path d="M0.931641 24.5748C1.84504 24.5155 2.5034 24.385 2.90671 24.1834C3.61845 23.8156 3.97432 23.1454 3.97432 22.1727V4.20133C3.97432 3.2642 3.63625 2.61178 2.96009 2.24405C2.56864 2.03052 1.89249 1.88225 0.931641 1.79921V0.873949H12.0703C16.5662 0.873949 19.9944 2.07204 22.355 4.46823C24.502 6.65089 25.5756 9.58088 25.5756 13.2582C25.5756 16.5559 24.4961 19.3495 22.3372 21.6389C19.9054 24.213 16.6077 25.5001 12.444 25.5001H0.931641V24.5748ZM9.86396 22.1371C9.89954 22.8845 10.036 23.4242 10.2732 23.7563C10.5223 24.0885 11.0443 24.2546 11.839 24.2546C13.998 24.2546 15.7714 23.4954 17.1593 21.977C18.5472 20.4468 19.2411 17.5168 19.2411 13.187C19.2411 10.6129 18.8674 8.40058 18.1201 6.55006C16.9102 3.57262 14.8698 2.0839 11.9992 2.0839C11.0502 2.0839 10.4333 2.28556 10.1487 2.68888C9.95885 2.94985 9.86396 3.454 9.86396 4.20133V22.1371Z" fill="white"/>
<path d="M27.5684 17.155C27.5684 14.6164 28.3454 12.499 29.8994 10.8027C31.4652 9.10639 33.4284 8.25823 35.789 8.25823C38.1971 8.25823 40.1662 9.12418 41.6964 10.8561C43.2386 12.588 44.0096 14.6876 44.0096 17.155C44.0096 19.5867 43.2504 21.6804 41.732 23.4361C40.2137 25.1798 38.2327 26.0517 35.789 26.0517C33.4166 26.0517 31.4534 25.2035 29.8994 23.5072C28.3454 21.7991 27.5684 19.6816 27.5684 17.155ZM32.9243 17.155C32.9243 19.7054 33.0548 21.4906 33.3157 22.5108C33.7309 24.0885 34.5553 24.8773 35.789 24.8773C36.9634 24.8773 37.7344 24.2723 38.1022 23.0624C38.4699 21.8524 38.6538 19.8833 38.6538 17.155C38.6538 14.4385 38.458 12.4753 38.0666 11.2653C37.687 10.0435 36.9337 9.4326 35.8068 9.4326C34.5731 9.4326 33.7487 10.2214 33.3335 11.7991C33.0607 12.8549 32.9243 14.6402 32.9243 17.155Z" fill="white"/>
<path d="M45.6466 24.6282C46.3465 24.5452 46.8328 24.3791 47.1057 24.13C47.3785 23.8809 47.5268 23.4005 47.5505 22.6887L47.5861 21.6211V11.7102C47.5861 10.951 47.4556 10.435 47.1946 10.1621C46.9337 9.8893 46.4176 9.70543 45.6466 9.61054V8.72086H52.5683V11.5856C53.3393 10.5773 54.1044 9.77661 54.8636 9.18349C55.6228 8.59038 56.5006 8.29382 57.497 8.29382C58.2444 8.29382 58.9146 8.537 59.5077 9.02335C60.1127 9.49784 60.4152 10.1977 60.4152 11.123C60.4152 11.8347 60.2016 12.4219 59.7746 12.8845C59.3594 13.3472 58.8138 13.5785 58.1376 13.5785C57.3666 13.5785 56.6963 13.2167 56.1269 12.4931C55.5694 11.7695 55.178 11.4077 54.9526 11.4077C54.4662 11.4077 53.9739 11.7102 53.4757 12.3151C52.9894 12.9083 52.7462 13.7623 52.7462 14.8774V21.7635C52.7462 22.9734 52.9182 23.7326 53.2622 24.041C53.6181 24.3376 54.3179 24.5333 55.3618 24.6282V25.5001H45.6466V24.6282Z" fill="white"/>
<path d="M61.6785 24.6282C62.4258 24.5689 62.9596 24.4028 63.2799 24.13C63.6121 23.8572 63.7781 23.2878 63.7781 22.4218V10.5714H61.6785V8.96997H63.7781V7.61767C63.7781 5.92136 64.045 4.52754 64.5788 3.43621C65.5871 1.39589 67.4495 0.375732 70.166 0.375732C71.6132 0.375732 72.835 0.707877 73.8314 1.37217C74.8397 2.02459 75.3439 2.89054 75.3439 3.97001C75.3439 4.64616 75.1304 5.19183 74.7033 5.60701C74.2881 6.02219 73.7306 6.22978 73.0307 6.22978C72.4495 6.22978 71.9513 6.03998 71.5361 5.66039C71.1209 5.2808 70.9133 4.8241 70.9133 4.29029C70.9133 3.88697 71.0438 3.46586 71.3048 3.02696C71.5776 2.57619 71.714 2.30336 71.714 2.20846C71.714 1.9119 71.6073 1.7221 71.3937 1.63907C71.1802 1.55603 70.9489 1.51451 70.6998 1.51451C70.1067 1.51451 69.65 1.68652 69.3297 2.03052C69.0094 2.37453 68.8493 3.11592 68.8493 4.25471V8.96997H72.0165V10.5714H68.8493V21.7635C68.8493 23.0209 69.0272 23.7919 69.3831 24.0766C69.7508 24.3613 70.5574 24.5452 71.803 24.6282V25.5001H61.6785V24.6282Z" fill="white"/>
<path d="M80.7709 8.72086V21.0873C80.7709 21.8228 80.8598 22.3625 81.0378 22.7065C81.3462 23.3115 81.9571 23.614 82.8705 23.614C83.4518 23.614 84.0212 23.4301 84.5787 23.0624C84.899 22.8607 85.3023 22.5227 85.7886 22.0482V11.7102C85.7886 10.951 85.6344 10.4231 85.326 10.1265C85.0294 9.81813 84.4245 9.64612 83.5111 9.61054V8.72086H90.7708V21.8346C90.7708 22.5938 90.9132 23.1217 91.1978 23.4183C91.4825 23.703 92.0401 23.8809 92.8704 23.9521V24.7884C90.6166 25.0019 89.1931 25.162 88.6 25.2688C88.0188 25.3637 87.0816 25.6128 85.7886 26.0161V23.614C84.9227 24.3613 84.205 24.8892 83.6356 25.1976C82.6392 25.7433 81.6012 26.0161 80.5218 26.0161C79.3474 26.0161 78.2501 25.6424 77.23 24.8951C76.2217 24.1478 75.7175 22.8192 75.7175 20.9094V11.7102C75.7175 10.9391 75.593 10.435 75.3439 10.1977C75.0948 9.96047 74.6143 9.76475 73.9026 9.61054V8.72086H80.7709Z" fill="white"/>
<path d="M94.5252 19.9841H95.5395C95.8953 21.7279 96.5596 22.9616 97.5323 23.6852C98.505 24.3969 99.5015 24.7528 100.522 24.7528C101.459 24.7528 102.147 24.5452 102.586 24.13C103.025 23.703 103.244 23.1454 103.244 22.4574C103.244 21.805 103.007 21.2475 102.532 20.7848C102.271 20.5357 101.85 20.2688 101.269 19.9841L98.5643 18.6674C97.1409 17.9675 96.1207 17.2083 95.5039 16.3898C94.8752 15.5713 94.5608 14.6046 94.5608 13.4895C94.5608 12.0779 95.0531 10.862 96.0377 9.84185C97.0222 8.80983 98.3983 8.29382 100.166 8.29382C100.937 8.29382 101.755 8.42431 102.621 8.68528C103.487 8.93439 104.027 9.05894 104.24 9.05894C104.537 9.05894 104.745 8.99963 104.863 8.88101C104.994 8.75052 105.1 8.57259 105.184 8.3472H105.984V13.6141H105.059C104.715 12.3804 104.151 11.3899 103.369 10.6426C102.586 9.89523 101.672 9.52157 100.628 9.52157C99.8217 9.52157 99.2168 9.74695 98.8134 10.1977C98.422 10.6485 98.2263 11.1348 98.2263 11.6568C98.2263 12.0838 98.4042 12.5109 98.7601 12.9379C99.1041 13.3768 99.7565 13.8276 100.717 14.2902L102.71 15.2511C103.944 15.8442 104.845 16.4195 105.415 16.977C106.364 17.926 106.838 19.0944 106.838 20.4823C106.838 21.8346 106.346 23.098 105.361 24.2723C104.389 25.4349 102.924 26.0161 100.966 26.0161C100.48 26.0161 99.9878 25.9627 99.4896 25.856C99.0032 25.7611 98.3983 25.5891 97.6747 25.34L97.0519 25.1264C96.8265 25.0434 96.6842 24.9959 96.6249 24.9841C96.5774 24.9722 96.5122 24.9663 96.4291 24.9663C96.2275 24.9663 96.0495 25.0493 95.8953 25.2154C95.753 25.3696 95.5869 25.6365 95.3971 26.0161H94.5252V19.9841Z" fill="white"/>
</svg>
