<svg width="138" height="32" viewBox="0 0 138 32" fill="none" xmlns="http://www.w3.org/2000/svg">
<path d="M48.2542 20.9623C52.1849 20.9623 54.7948 19.1385 54.7948 15.994C54.7948 12.8381 52.2015 11.8505 49.7119 11.1078L49.4252 11.023C47.2335 10.3801 45.2041 9.87097 45.2041 8.16413C45.2041 6.81199 46.3047 5.96297 48.2228 5.96297C49.8894 5.96297 51.0843 6.65476 51.6189 8.13268L54.1659 7.12644C53.4427 4.92528 51.273 3.69893 48.2542 3.69893C44.6066 3.69893 42.2482 5.45985 42.2482 8.32135C42.2482 14.0129 51.7761 12.2205 51.7761 16.2141C51.7761 17.7549 50.424 18.6353 48.3486 18.6353C46.0531 18.6353 44.5123 17.6291 43.9777 15.9311L41.4307 16.9373C42.3111 19.5787 44.8267 20.9623 48.2542 20.9623ZM72.7395 26.2451V4.04482H70.2553V7.12644C68.9346 4.98817 66.7335 3.69893 63.9663 3.69893C59.2496 3.69893 55.8849 7.40945 55.8849 12.3463C55.8849 17.2832 59.3439 20.9623 64.0292 20.9623C66.6391 20.9623 68.746 19.7988 70.0667 17.8807V26.2451H72.7395ZM64.3437 18.6039C61.0105 18.6039 58.5263 15.9311 58.5263 12.3463C58.5263 8.73014 61.0105 6.05731 64.3437 6.05731C67.7712 6.05731 70.161 8.66725 70.161 12.3463C70.161 16.0254 67.8026 18.6039 64.3437 18.6039ZM82.5399 20.9623C84.9926 20.9623 86.9736 19.7988 88.0742 18.258V20.6164H90.6213V4.04482H87.9484V14.4531C87.917 16.56 86.0303 18.5725 83.2317 18.5725C80.4016 18.6039 78.6092 16.7486 78.6092 13.95V4.04482H75.9364V14.2645C75.9364 18.1951 78.2948 20.9623 82.5399 20.9623ZM101.145 20.9623C103.944 20.9623 106.113 19.6416 107.371 17.4404V20.6164H109.855V4.04482H107.371V7.25222C106.113 5.11395 103.944 3.85615 101.145 3.85615C96.4596 3.85615 93.0006 7.40945 93.0006 12.3149C93.0006 17.2832 96.4281 20.9623 101.145 20.9623ZM101.459 18.6039C98.1262 18.6039 95.642 15.9311 95.642 12.3149C95.642 8.76159 98.1262 6.05731 101.459 6.05731C104.918 6.05731 107.277 8.63581 107.277 12.3149C107.277 16.0254 104.887 18.6039 101.459 18.6039ZM115.945 20.6164V10.6168C115.945 8.25846 118.052 6.21453 121.071 6.18309V3.69893C118.744 3.69893 116.857 4.92528 115.788 6.46609V4.04482H113.272V20.6164H115.945ZM129.393 20.9937C133.324 20.9937 135.619 19.2957 136.846 16.9373L134.519 15.5223C133.701 17.4404 132.192 18.4781 129.487 18.4781C126.437 18.4781 124.016 16.4027 123.544 13.3211H137.317C137.349 13.0067 137.38 12.4407 137.38 11.969C137.38 7.59812 134.204 3.66748 129.204 3.66748C124.519 3.66748 120.84 7.53523 120.84 12.3463C120.84 17.2832 124.299 20.9937 129.393 20.9937ZM134.644 10.9942H123.576C124.079 7.84968 126.5 5.99442 129.299 5.99442C132.066 5.99442 134.236 7.88112 134.644 10.9942Z" fill="white"/>
<path d="M79.8673 30.7372C79.9533 30.7372 80.0442 30.7317 80.14 30.7206C80.2358 30.7096 80.3402 30.693 80.4532 30.6709V30.3835H80.3869C80.0749 30.3835 79.8526 30.346 79.7199 30.2711C79.5873 30.1961 79.4828 30.0555 79.4067 29.8491C79.3723 29.7632 79.3256 29.5893 79.2667 29.3277C79.2077 29.0661 79.1365 28.8677 79.0529 28.7326C78.9792 28.6098 78.8785 28.5072 78.7508 28.4249C78.623 28.3426 78.4646 28.2757 78.2754 28.2241C78.6808 28.1356 78.9854 27.9864 79.1893 27.7763C79.3932 27.5663 79.4951 27.2979 79.4951 26.9712C79.4951 26.5118 79.3465 26.1709 79.0492 25.9486C78.752 25.7263 78.2951 25.6151 77.6784 25.6151H75.7549V25.9173L76.1823 25.9615L76.3113 26.0684V30.225L76.1823 30.3319L75.7549 30.3687V30.6783H77.5495V30.3687L77.1183 30.3319L76.9893 30.225V28.4304L77.0151 28.4267C77.1773 28.4194 77.2952 28.4157 77.3689 28.4157C77.7153 28.4157 77.9739 28.4746 78.1446 28.5926C78.3153 28.7105 78.4511 28.923 78.5518 29.2301C78.5788 29.3111 78.6144 29.434 78.6586 29.5986C78.7766 30.0555 78.9252 30.3626 79.1045 30.5198C79.1905 30.5935 79.2955 30.6482 79.4196 30.6838C79.5436 30.7194 79.6929 30.7372 79.8673 30.7372ZM77.4058 28.073C77.3419 28.073 77.2755 28.0724 77.2068 28.0711C77.138 28.0699 77.0655 28.0681 76.9893 28.0656V25.9615H77.3542C77.843 25.9615 78.1968 26.0462 78.4154 26.2158C78.6341 26.3853 78.7434 26.6579 78.7434 27.0338C78.7434 27.3974 78.6371 27.6615 78.4246 27.8261C78.2121 27.9907 77.8725 28.073 77.4058 28.073ZM81.8194 30.7446C82.0626 30.7446 82.3045 30.7065 82.5453 30.6303C82.7861 30.5542 83.0182 30.4424 83.2418 30.295V29.8786C83.0157 30.0285 82.8063 30.139 82.6135 30.2103C82.4206 30.2815 82.2345 30.3171 82.0552 30.3171C81.667 30.3171 81.3587 30.1789 81.1303 29.9026C80.9018 29.6262 80.7876 29.2509 80.7876 28.7768V28.6921H83.2307C83.2356 28.6626 83.2387 28.6319 83.2399 28.5999C83.2411 28.568 83.2418 28.5213 83.2418 28.4599C83.2418 28.0005 83.1195 27.6375 82.8751 27.371C82.6307 27.1044 82.2996 26.9712 81.882 26.9712C81.371 26.9712 80.9528 27.1499 80.6273 27.5073C80.3018 27.8648 80.139 28.326 80.139 28.891C80.139 29.4413 80.2944 29.8878 80.6052 30.2305C80.9159 30.5732 81.3207 30.7446 81.8194 30.7446ZM82.5674 28.3751H80.8244C80.8465 28.0681 80.9491 27.8144 81.1321 27.6142C81.3151 27.414 81.5319 27.3139 81.7825 27.3139C82.038 27.3139 82.2327 27.3949 82.3666 27.5571C82.5005 27.7192 82.5674 27.9526 82.5674 28.2572V28.3751ZM84.5969 30.7298C84.7737 30.7298 84.9635 30.6899 85.1662 30.6101C85.3689 30.5302 85.5918 30.4068 85.835 30.2397L85.9345 30.6783H86.9958V30.4056L86.5978 30.3687L86.4688 30.2471V28.0582C86.4688 27.6775 86.3792 27.4011 86.1998 27.2291C86.0205 27.0572 85.7331 26.9712 85.3375 26.9712C84.888 26.9712 84.5213 27.0522 84.2376 27.2144C83.9538 27.3765 83.812 27.5804 83.812 27.8261C83.812 27.9145 83.8285 27.9753 83.8617 28.0085C83.8949 28.0417 83.9569 28.0582 84.0478 28.0582H84.5674V27.4244C84.6681 27.3851 84.7651 27.3556 84.8585 27.336C84.9518 27.3163 85.0464 27.3065 85.1422 27.3065C85.3977 27.3065 85.5771 27.3679 85.6802 27.4908C85.7834 27.6136 85.835 27.8335 85.835 28.1504V28.3899C84.8941 28.6159 84.2916 28.821 84.0275 29.0053C83.7634 29.1895 83.6314 29.4426 83.6314 29.7644C83.6314 30.0543 83.7192 30.2876 83.8949 30.4645C84.0705 30.6414 84.3045 30.7298 84.5969 30.7298ZM84.899 30.3245C84.7148 30.3245 84.568 30.2686 84.4587 30.1568C84.3493 30.0451 84.2947 29.8946 84.2947 29.7054C84.2947 29.4696 84.3936 29.2792 84.5913 29.1342C84.7891 28.9893 85.2036 28.8296 85.835 28.6552V29.9855C85.636 30.0985 85.4598 30.1832 85.3062 30.2397C85.1527 30.2962 85.0169 30.3245 84.899 30.3245ZM88.8667 30.6783V30.4056L88.4356 30.3687L88.2993 30.2471V25.125H88.0118L87.0906 25.394V25.6298H87.6728V30.2471L87.5438 30.3687L87.098 30.4056V30.6783H88.8667ZM94.746 30.6783V29.4475H94.3554L94.2264 30.2103L94.1196 30.3319H92.0965V28.2167H93.3347L93.4415 28.3309L93.5152 28.8763H93.8727V27.2144H93.5152L93.4415 27.7634L93.3347 27.8703H92.0965V25.9615H93.8432L93.9464 26.0757L94.0532 26.7169H94.477V25.6151H90.862V25.9173L91.2895 25.9615L91.4185 26.0684V30.225L91.2895 30.3319L90.862 30.3687V30.6783H94.746ZM96.0053 30.7446C96.4475 30.7446 96.7932 30.6445 97.0426 30.4443C97.2919 30.244 97.4166 29.9671 97.4166 29.6133C97.4166 29.4782 97.3921 29.3547 97.3429 29.243C97.2938 29.1312 97.2225 29.0384 97.1292 28.9647C97.0014 28.8591 96.7951 28.7412 96.5101 28.611C96.429 28.5741 96.3689 28.5459 96.3296 28.5262C96.079 28.4059 95.9095 28.2965 95.821 28.1983C95.7326 28.1 95.6884 27.9809 95.6884 27.8408C95.6884 27.6689 95.7436 27.535 95.8542 27.4392C95.9647 27.3434 96.1183 27.2954 96.3148 27.2954C96.4057 27.2954 96.4966 27.309 96.5875 27.336C96.6784 27.363 96.7742 27.4035 96.8749 27.4576L96.9339 27.9919H97.3061V27.137C97.1783 27.0829 97.0414 27.0418 96.8952 27.0135C96.749 26.9853 96.5912 26.9712 96.4217 26.9712C95.9967 26.9712 95.6675 27.0633 95.4341 27.2475C95.2007 27.4318 95.084 27.6922 95.084 28.0288C95.084 28.2499 95.1522 28.4353 95.2885 28.5852C95.4249 28.735 95.6822 28.8947 96.0606 29.0642C96.3947 29.2165 96.6059 29.3425 96.6944 29.4419C96.7828 29.5414 96.827 29.6673 96.827 29.8197C96.827 30.0014 96.7625 30.1482 96.6336 30.26C96.5046 30.3718 96.3332 30.4277 96.1195 30.4277C96.0114 30.4277 95.9039 30.4129 95.7971 30.3835C95.6902 30.354 95.584 30.3085 95.4783 30.2471L95.3862 29.6059H95.0251V30.5861C95.1651 30.6402 95.318 30.6801 95.4839 30.7059C95.6497 30.7317 95.8235 30.7446 96.0053 30.7446ZM98.9228 30.7004C99.0776 30.7004 99.2385 30.6862 99.4055 30.658C99.5726 30.6297 99.7421 30.5886 99.9141 30.5345V30.2545C99.8207 30.2766 99.7304 30.2926 99.6432 30.3024C99.556 30.3122 99.4719 30.3171 99.3908 30.3171C99.1549 30.3171 98.9916 30.2612 98.9007 30.1495C98.8098 30.0377 98.7643 29.8184 98.7643 29.4917V27.5018H99.9141V27.148H98.7643V26.3447H98.4843L98.16 27.0486L97.6625 27.266V27.5018H98.1379V29.9376C98.1379 30.2275 98.1962 30.4271 98.3129 30.5364C98.4296 30.6457 98.6329 30.7004 98.9228 30.7004ZM101.026 30.7298C101.203 30.7298 101.393 30.6899 101.595 30.6101C101.798 30.5302 102.021 30.4068 102.264 30.2397L102.364 30.6783H103.425V30.4056L103.027 30.3687L102.898 30.2471V28.0582C102.898 27.6775 102.808 27.4011 102.629 27.2291C102.45 27.0572 102.162 26.9712 101.767 26.9712C101.317 26.9712 100.95 27.0522 100.667 27.2144C100.383 27.3765 100.241 27.5804 100.241 27.8261C100.241 27.9145 100.258 27.9753 100.291 28.0085C100.324 28.0417 100.386 28.0582 100.477 28.0582H100.996V27.4244C101.097 27.3851 101.194 27.3556 101.288 27.336C101.381 27.3163 101.475 27.3065 101.571 27.3065C101.827 27.3065 102.006 27.3679 102.109 27.4908C102.212 27.6136 102.264 27.8335 102.264 28.1504V28.3899C101.323 28.6159 100.721 28.821 100.457 29.0053C100.193 29.1895 100.06 29.4426 100.06 29.7644C100.06 30.0543 100.148 30.2876 100.324 30.4645C100.5 30.6414 100.734 30.7298 101.026 30.7298ZM101.328 30.3245C101.144 30.3245 100.997 30.2686 100.888 30.1568C100.778 30.0451 100.724 29.8946 100.724 29.7054C100.724 29.4696 100.823 29.2792 101.02 29.1342C101.218 28.9893 101.633 28.8296 102.264 28.6552V29.9855C102.065 30.0985 101.889 30.1832 101.735 30.2397C101.582 30.2962 101.446 30.3245 101.328 30.3245ZM104.765 30.7004C104.92 30.7004 105.081 30.6862 105.248 30.658C105.415 30.6297 105.584 30.5886 105.756 30.5345V30.2545C105.663 30.2766 105.573 30.2926 105.486 30.3024C105.398 30.3122 105.314 30.3171 105.233 30.3171C104.997 30.3171 104.834 30.2612 104.743 30.1495C104.652 30.0377 104.607 29.8184 104.607 29.4917V27.5018H105.756V27.148H104.607V26.3447H104.327L104.002 27.0486L103.505 27.266V27.5018H103.98V29.9376C103.98 30.2275 104.039 30.4271 104.155 30.5364C104.272 30.6457 104.475 30.7004 104.765 30.7004ZM107.546 30.7446C107.79 30.7446 108.032 30.7065 108.272 30.6303C108.513 30.5542 108.745 30.4424 108.969 30.295V29.8786C108.743 30.0285 108.533 30.139 108.34 30.2103C108.148 30.2815 107.962 30.3171 107.782 30.3171C107.394 30.3171 107.086 30.1789 106.857 29.9026C106.629 29.6262 106.515 29.2509 106.515 28.7768V28.6921H108.958C108.963 28.6626 108.966 28.6319 108.967 28.5999C108.968 28.568 108.969 28.5213 108.969 28.4599C108.969 28.0005 108.847 27.6375 108.602 27.371C108.358 27.1044 108.027 26.9712 107.609 26.9712C107.098 26.9712 106.68 27.1499 106.354 27.5073C106.029 27.8648 105.866 28.326 105.866 28.891C105.866 29.4413 106.021 29.8878 106.332 30.2305C106.643 30.5732 107.048 30.7446 107.546 30.7446ZM108.294 28.3751H106.551C106.574 28.0681 106.676 27.8144 106.859 27.6142C107.042 27.414 107.259 27.3139 107.51 27.3139C107.765 27.3139 107.96 27.3949 108.094 27.5571C108.227 27.7192 108.294 27.9526 108.294 28.2572V28.3751ZM112.7 30.7704C113.289 30.7704 113.762 30.631 114.118 30.3521C114.475 30.0733 114.653 29.7066 114.653 29.2522C114.653 29.0876 114.625 28.9353 114.57 28.7952C114.515 28.6552 114.432 28.5311 114.321 28.4231C114.127 28.2314 113.81 28.0496 113.37 27.8777C113.287 27.8457 113.224 27.8212 113.182 27.804C112.735 27.6148 112.447 27.4533 112.318 27.3194C112.189 27.1855 112.125 27.0166 112.125 26.8127C112.125 26.5327 112.217 26.3109 112.401 26.1476C112.585 25.9842 112.835 25.9025 113.149 25.9025C113.282 25.9025 113.405 25.9154 113.518 25.9412C113.631 25.967 113.735 26.0069 113.831 26.061L113.942 26.1863L114.056 26.9048H114.45V25.7367C114.229 25.6655 114.012 25.612 113.8 25.5764C113.587 25.5408 113.375 25.523 113.164 25.523C112.638 25.523 112.216 25.6563 111.898 25.9228C111.58 26.1893 111.421 26.5388 111.421 26.9712C111.421 27.2783 111.505 27.5282 111.672 27.7211C111.839 27.9139 112.18 28.1221 112.696 28.3457C112.738 28.3629 112.798 28.3887 112.877 28.4231C113.599 28.7301 113.96 29.0765 113.96 29.4622C113.96 29.7398 113.857 29.9603 113.652 30.1237C113.447 30.287 113.169 30.3687 112.818 30.3687C112.651 30.3687 112.496 30.354 112.353 30.3245C112.211 30.295 112.084 30.252 111.974 30.1955L111.874 30.0665L111.786 29.2006H111.34V30.5272C111.519 30.6058 111.725 30.666 111.957 30.7077C112.189 30.7495 112.437 30.7704 112.7 30.7704ZM116.863 30.7446C117.374 30.7446 117.794 30.5683 118.125 30.2158C118.455 29.8633 118.62 29.4106 118.62 28.8579C118.62 28.3051 118.456 27.8525 118.127 27.5C117.797 27.1474 117.376 26.9712 116.863 26.9712C116.347 26.9712 115.926 27.1468 115.601 27.4981C115.275 27.8494 115.112 28.3027 115.112 28.8579C115.112 29.4131 115.276 29.8663 115.604 30.2176C115.932 30.5689 116.352 30.7446 116.863 30.7446ZM116.863 30.4203C116.551 30.4203 116.299 30.2784 116.107 29.9947C115.916 29.7109 115.82 29.332 115.82 28.8579C115.82 28.3837 115.915 28.0048 116.105 27.7211C116.296 27.4373 116.548 27.2954 116.863 27.2954C117.177 27.2954 117.431 27.4379 117.624 27.7229C117.817 28.0079 117.913 28.3862 117.913 28.8579C117.913 29.3345 117.817 29.714 117.626 29.9965C117.434 30.279 117.18 30.4203 116.863 30.4203ZM120.628 30.6783V30.4056L120.197 30.3687L120.06 30.2471V25.125H119.773L118.852 25.394V25.6298H119.434V30.2471L119.305 30.3687L118.859 30.4056V30.6783H120.628ZM122.27 30.752C122.45 30.752 122.639 30.7114 122.84 30.6303C123.04 30.5493 123.258 30.424 123.494 30.2545V30.6783H124.61V30.4056L124.256 30.3687L124.12 30.2471V26.9712H123.833L122.956 27.2512V27.4871H123.494V30.0444C123.336 30.1206 123.186 30.1771 123.042 30.2139C122.899 30.2508 122.757 30.2692 122.617 30.2692C122.366 30.2692 122.182 30.2047 122.064 30.0758C121.946 29.9468 121.887 29.7447 121.887 29.4696V26.9712H121.6L120.723 27.2512V27.4871H121.261V29.5986C121.261 29.972 121.347 30.2576 121.52 30.4553C121.694 30.6531 121.944 30.752 122.27 30.752ZM126.017 30.7004C126.172 30.7004 126.333 30.6862 126.5 30.658C126.667 30.6297 126.836 30.5886 127.008 30.5345V30.2545C126.915 30.2766 126.825 30.2926 126.737 30.3024C126.65 30.3122 126.566 30.3171 126.485 30.3171C126.249 30.3171 126.086 30.2612 125.995 30.1495C125.904 30.0377 125.858 29.8184 125.858 29.4917V27.5018H127.008V27.148H125.858V26.3447H125.578L125.254 27.0486L124.757 27.266V27.5018H125.232V29.9376C125.232 30.2275 125.29 30.4271 125.407 30.5364C125.524 30.6457 125.727 30.7004 126.017 30.7004ZM127.998 26.2047C128.121 26.2047 128.225 26.1629 128.31 26.0794C128.395 25.9959 128.437 25.8939 128.437 25.7736C128.437 25.6532 128.395 25.55 128.31 25.464C128.225 25.378 128.121 25.335 127.998 25.335C127.878 25.335 127.776 25.3774 127.691 25.4622C127.606 25.5469 127.564 25.6507 127.564 25.7736C127.564 25.8939 127.606 25.9959 127.691 26.0794C127.776 26.1629 127.878 26.2047 127.998 26.2047ZM128.798 30.6783V30.4056L128.393 30.3687L128.264 30.2471V27.0117H127.969L127.103 27.2807V27.5165H127.63V30.2471L127.501 30.3687L127.103 30.4056V30.6783H128.798ZM130.728 30.7446C131.239 30.7446 131.66 30.5683 131.99 30.2158C132.321 29.8633 132.486 29.4106 132.486 28.8579C132.486 28.3051 132.321 27.8525 131.992 27.5C131.663 27.1474 131.241 26.9712 130.728 26.9712C130.212 26.9712 129.791 27.1468 129.466 27.4981C129.14 27.8494 128.978 28.3027 128.978 28.8579C128.978 29.4131 129.142 29.8663 129.47 30.2176C129.798 30.5689 130.217 30.7446 130.728 30.7446ZM130.728 30.4203C130.416 30.4203 130.164 30.2784 129.973 29.9947C129.781 29.7109 129.685 29.332 129.685 28.8579C129.685 28.3837 129.78 28.0048 129.971 27.7211C130.161 27.4373 130.414 27.2954 130.728 27.2954C131.042 27.2954 131.296 27.4379 131.489 27.7229C131.682 28.0079 131.778 28.3862 131.778 28.8579C131.778 29.3345 131.682 29.714 131.491 29.9965C131.299 30.279 131.045 30.4203 130.728 30.4203ZM134.394 30.6783V30.4056L134.032 30.3687L133.904 30.2471V27.7192C134.066 27.6357 134.217 27.5737 134.357 27.5331C134.497 27.4926 134.627 27.4723 134.747 27.4723C135.023 27.4723 135.218 27.5313 135.335 27.6492C135.452 27.7671 135.51 27.9673 135.51 28.2499V30.2471L135.381 30.3687L135.02 30.4056V30.6783H136.671V30.4056L136.266 30.3687L136.137 30.2471V28.1209C136.137 27.7475 136.049 27.4625 135.875 27.266C135.701 27.0694 135.449 26.9712 135.12 26.9712C134.98 26.9712 134.817 27.005 134.633 27.0725C134.449 27.1401 134.206 27.2574 133.904 27.4244V27.0117H133.616L132.739 27.2807V27.5165H133.277V30.2471L133.148 30.3687L132.739 30.4056V30.6783H134.394Z" fill="white"/>
<path fill-rule="evenodd" clip-rule="evenodd" d="M0.456055 0.491211H31.9012V31.9363H0.456055V0.491211ZM23.8596 8.5325L8.496 8.53085V23.8958L8.49091 23.9006L8.49106 23.9017H23.8666L23.8653 8.52703L23.8646 8.5269L23.8596 8.5325Z" fill="white"/>
</svg>
