<svg width="146" height="37" viewBox="0 0 146 37" fill="none" xmlns="http://www.w3.org/2000/svg">
<path fill-rule="evenodd" clip-rule="evenodd" d="M0.880859 16.7014V23.3301L19.7479 7.73757V1.10889L0.880859 16.7014Z" fill="white"/>
<path fill-rule="evenodd" clip-rule="evenodd" d="M0.880859 29.6992V36.3277L19.7479 20.7351V14.1064L0.880859 29.6992Z" fill="white"/>
<path fill-rule="evenodd" clip-rule="evenodd" d="M9.26758 16.7014V23.3301L28.1346 7.73757V1.10889L9.26758 16.7014Z" fill="white"/>
<path fill-rule="evenodd" clip-rule="evenodd" d="M9.26758 29.6992V36.3277L28.1346 20.7351V14.1064L9.26758 29.6992Z" fill="white"/>
<path d="M50.1035 23.7146C51.2294 23.7146 52.3759 23.6071 53.5428 23.3922C54.7097 23.1772 55.9124 22.8548 57.151 22.4249V15.0857L57.6423 14.6557L59.4694 14.5022V12.9514H50.2877V14.5022L52.6215 14.6557L53.1129 15.0857V21.5036C52.7239 21.5344 52.381 21.5574 52.0841 21.5727C51.7873 21.5881 51.557 21.5958 51.3932 21.5958C48.9468 21.5958 47.0352 20.805 45.6585 19.2236C44.2817 17.6421 43.5934 15.449 43.5934 12.6444C43.5934 9.91134 44.2664 7.76433 45.6124 6.20333C46.9585 4.64234 48.8086 3.86184 51.1629 3.86184C51.6338 3.86184 52.0841 3.90278 52.5141 3.98467C52.944 4.06656 53.3637 4.19451 53.7731 4.36852L54.2491 4.93662L54.8479 8.26845H57.151V2.92524C55.9841 2.57722 54.8453 2.3162 53.7347 2.14219C52.6241 1.96817 51.5468 1.88117 50.5027 1.88117C47.0429 1.88117 44.2664 2.86127 42.1731 4.82147C40.0798 6.78167 39.0332 9.3893 39.0332 12.6444C39.0332 15.9301 40.0568 18.5966 42.104 20.6438C44.1512 22.691 46.8177 23.7146 50.1035 23.7146ZM68.1097 23.5764C70.5663 23.5764 72.5368 22.8599 74.021 21.4269C75.5052 19.9938 76.2473 18.1002 76.2473 15.7459C76.2473 13.2585 75.5359 11.2855 74.1131 9.82689C72.6903 8.36825 70.771 7.63894 68.3553 7.63894C65.8987 7.63894 63.9283 8.37337 62.444 9.84224C60.9598 11.3111 60.2177 13.2585 60.2177 15.6845C60.2177 18.049 60.9419 19.9554 62.3903 21.4038C63.8387 22.8522 65.7452 23.5764 68.1097 23.5764ZM68.2018 21.9182C67.0656 21.9182 66.1776 21.3603 65.5379 20.2446C64.8981 19.1289 64.5782 17.5679 64.5782 15.5616C64.5782 13.5861 64.9007 12.0507 65.5456 10.9554C66.1904 9.86016 67.0861 9.31253 68.2325 9.31253C69.3892 9.31253 70.2925 9.87039 70.9425 10.9861C71.5925 12.1018 71.9175 13.6577 71.9175 15.6538C71.9175 17.66 71.5951 19.2057 70.9502 20.2907C70.3053 21.3757 69.3892 21.9182 68.2018 21.9182ZM83.0451 23.3308C84.2836 23.3308 85.3405 23.2719 86.2157 23.1542C87.0909 23.0365 87.8151 22.8548 88.3883 22.6091C90.0056 21.8824 91.2365 20.8562 92.0809 19.5306C92.9254 18.2051 93.3476 16.6313 93.3476 14.8093C93.3476 12.7109 92.7693 10.9964 91.6126 9.66567C90.456 8.33499 88.9717 7.66964 87.16 7.66964C86.4742 7.66964 85.7576 7.7848 85.0104 8.01511C84.2632 8.24542 83.4596 8.60112 82.5998 9.08222V0.100098H81.0951L76.4275 1.57409V2.80241H78.6999V23.2694L82.1853 23.3308H83.0451ZM83.5978 21.6572C83.3317 21.6572 83.127 21.6546 82.9837 21.6495C82.8404 21.6444 82.7124 21.6367 82.5998 21.6265V10.372C83.0093 10.2901 83.3752 10.2287 83.6976 10.1877C84.0201 10.1468 84.3143 10.1263 84.5805 10.1263C86.0442 10.1263 87.1702 10.5997 87.9584 11.5465C88.7465 12.4934 89.1406 13.8522 89.1406 15.623C89.1406 17.6907 88.6928 19.2133 87.7972 20.1909C86.9015 21.1684 85.5017 21.6572 83.5978 21.6572ZM102.31 23.5764C104.767 23.5764 106.737 22.8599 108.222 21.4269C109.706 19.9938 110.448 18.1002 110.448 15.7459C110.448 13.2585 109.737 11.2855 108.314 9.82689C106.891 8.36825 104.972 7.63894 102.556 7.63894C100.099 7.63894 98.1289 8.37337 96.6447 9.84224C95.1604 11.3111 94.4183 13.2585 94.4183 15.6845C94.4183 18.049 95.1425 19.9554 96.5909 21.4038C98.0393 22.8522 99.9458 23.5764 102.31 23.5764ZM102.402 21.9182C101.266 21.9182 100.378 21.3603 99.7385 20.2446C99.0988 19.1289 98.7789 17.5679 98.7789 15.5616C98.7789 13.5861 99.1013 12.0507 99.7462 10.9554C100.391 9.86016 101.287 9.31253 102.433 9.31253C103.59 9.31253 104.493 9.87039 105.143 10.9861C105.793 12.1018 106.118 13.6577 106.118 15.6538C106.118 17.66 105.796 19.2057 105.151 20.2907C104.506 21.3757 103.59 21.9182 102.402 21.9182ZM119.088 23.3308V21.9182L117.706 21.7954L117.276 21.3194V10.9401C117.891 10.766 118.446 10.633 118.942 10.5409C119.439 10.4487 119.876 10.4027 120.255 10.4027C121.238 10.4027 121.954 10.6765 122.405 11.2241C122.855 11.7717 123.08 12.629 123.08 13.7959V21.3194L122.65 21.7954L121.299 21.9182V23.3308H128.992V21.9182L127.333 21.7954L126.919 21.3194V12.89C126.919 11.1294 126.566 9.81921 125.859 8.95938C125.153 8.09956 124.083 7.66964 122.65 7.66964C122.005 7.66964 121.248 7.82319 120.378 8.13027C119.508 8.43735 118.474 8.92356 117.276 9.5889V7.73106H115.756L111.227 9.20505V10.4641H113.376V21.3194L112.931 21.7954L111.319 21.9182V23.3308H119.088ZM133.701 23.6071C134.5 23.6071 135.334 23.4434 136.204 23.1158C137.074 22.7883 138.041 22.2611 139.106 21.5344L139.52 23.3308H145.125V21.9489L143.451 21.7954L143.036 21.3501V13.2125C143.036 11.155 142.596 9.71173 141.716 8.88262C140.836 8.0535 139.316 7.63894 137.156 7.63894C135.231 7.63894 133.609 8.00232 132.289 8.72907C130.968 9.45583 130.308 10.3105 130.308 11.2932C130.308 11.6924 130.423 11.9841 130.653 12.1684C130.884 12.3526 131.25 12.4448 131.751 12.4448H134.653V9.49678C134.94 9.43536 135.206 9.3893 135.452 9.35859C135.697 9.32788 135.933 9.31253 136.158 9.31253C137.192 9.31253 137.949 9.57355 138.43 10.0956C138.911 10.6176 139.152 11.4467 139.152 12.5829V13.5195C135.027 14.451 132.401 15.316 131.275 16.1144C130.149 16.9128 129.586 18.049 129.586 19.523C129.586 20.7206 129.97 21.7007 130.738 22.4633C131.506 23.2259 132.493 23.6071 133.701 23.6071ZM136.066 21.1966C135.349 21.1966 134.781 20.9842 134.361 20.5594C133.942 20.1346 133.732 19.5588 133.732 18.832C133.732 17.9006 134.111 17.1636 134.868 16.6211C135.626 16.0785 137.038 15.577 139.106 15.1164V20.2446C138.492 20.5619 137.931 20.7999 137.425 20.9586C136.918 21.1172 136.465 21.1966 136.066 21.1966Z" fill="white"/>
<path d="M42.7485 34.6512V34.29L42.1509 34.247L42.009 34.1224V32.1405L43.8405 29.2085L44.3779 29.0967V28.7441H42.5808V29.0967L43.1182 29.1913L43.1999 29.3159L41.721 31.6676L40.3711 29.2471L40.4614 29.1483L40.9644 29.0967V28.7441H38.918V29.0967L39.4554 29.1827L41.2094 32.2565V34.1224L41.0675 34.247L40.47 34.29V34.6512H42.7485ZM45.4257 34.7285C46.0219 34.7285 46.5127 34.5229 46.8982 34.1116C47.2837 33.7003 47.4764 33.1723 47.4764 32.5274C47.4764 31.8825 47.2844 31.3544 46.9003 30.9432C46.5163 30.5319 46.0247 30.3262 45.4257 30.3262C44.8238 30.3262 44.333 30.5312 43.9533 30.941C43.5735 31.3509 43.3836 31.8797 43.3836 32.5274C43.3836 33.1751 43.5749 33.7039 43.9576 34.1138C44.3402 34.5236 44.8296 34.7285 45.4257 34.7285ZM45.4257 34.3502C45.0617 34.3502 44.7679 34.1847 44.5444 33.8537C44.3208 33.5226 44.2091 33.0805 44.2091 32.5274C44.2091 31.9742 44.3201 31.5321 44.5422 31.2011C44.7644 30.8701 45.0589 30.7046 45.4257 30.7046C45.7926 30.7046 46.0885 30.8708 46.3135 31.2033C46.5385 31.5357 46.651 31.9771 46.651 32.5274C46.651 33.0834 46.5392 33.5262 46.3156 33.8558C46.0921 34.1854 45.7954 34.3502 45.4257 34.3502ZM49.5431 34.7371C49.7524 34.7371 49.9738 34.6899 50.2074 34.5953C50.4409 34.5007 50.6953 34.3545 50.9704 34.1568V34.6512H52.2731V34.333L51.8604 34.29L51.7013 34.1482V30.3262H51.366L50.3428 30.653V30.9281H50.9704V33.9117C50.787 34.0006 50.6115 34.0665 50.4438 34.1095C50.2761 34.1525 50.1106 34.174 49.9473 34.174C49.6549 34.174 49.44 34.0987 49.3024 33.9483C49.1648 33.7978 49.096 33.562 49.096 33.241V30.3262H48.7607L47.7375 30.653V30.9281H48.3652V33.3915C48.3652 33.8272 48.4662 34.1603 48.6683 34.3911C48.8703 34.6218 49.1619 34.7371 49.5431 34.7371ZM54.6107 34.6512V34.333L53.9959 34.29L53.8454 34.1482V31.6332C54.0317 31.4125 54.203 31.2498 54.3592 31.1452C54.5154 31.0406 54.6637 30.9883 54.8041 30.9883C54.8958 30.9883 54.9797 31.0062 55.0556 31.042C55.1316 31.0779 55.1982 31.1302 55.2555 31.199H55.535V30.4423C55.4433 30.4022 55.3544 30.3728 55.2684 30.3542C55.1825 30.3355 55.095 30.3262 55.0062 30.3262C54.946 30.3262 54.9009 30.3277 54.8708 30.3305C54.8407 30.3334 54.8127 30.3391 54.7869 30.3477C54.615 30.4853 54.4509 30.625 54.2947 30.7669C54.1385 30.9088 53.9887 31.0528 53.8454 31.199V30.3735H53.5101L52.4869 30.6874V30.9625H53.106V34.1482L52.9555 34.29L52.4869 34.333V34.6512H54.6107ZM61.2247 34.6512V34.29L60.6315 34.247L60.4853 34.1224V29.1483H61.8309L61.9556 29.2815L62.076 30.0984H62.5618V28.7441H57.5877V30.0984H58.0692L58.1939 29.2815L58.3185 29.1483H59.6642V34.1224L59.5137 34.247L58.9247 34.29V34.6512H61.2247ZM64.1556 34.6512V34.333L63.5408 34.29L63.3904 34.1482V31.6332C63.5767 31.4125 63.7479 31.2498 63.9041 31.1452C64.0603 31.0406 64.2086 30.9883 64.3491 30.9883C64.4408 30.9883 64.5246 31.0062 64.6006 31.042C64.6765 31.0779 64.7432 31.1302 64.8005 31.199H65.0799V30.4423C64.9882 30.4022 64.8994 30.3728 64.8134 30.3542C64.7274 30.3355 64.64 30.3262 64.5511 30.3262C64.4909 30.3262 64.4458 30.3277 64.4157 30.3305C64.3856 30.3334 64.3577 30.3391 64.3319 30.3477C64.1599 30.4853 63.9958 30.625 63.8396 30.7669C63.6834 30.9088 63.5337 31.0528 63.3904 31.199V30.3735H63.055L62.0318 30.6874V30.9625H62.6509V34.1482L62.5004 34.29L62.0318 34.333V34.6512H64.1556ZM66.8715 34.7371C67.0807 34.7371 67.3021 34.6899 67.5357 34.5953C67.7693 34.5007 68.0237 34.3545 68.2988 34.1568V34.6512H69.6015V34.333L69.1888 34.29L69.0297 34.1482V30.3262H68.6944L67.6712 30.653V30.9281H68.2988V33.9117C68.1154 34.0006 67.9399 34.0665 67.7722 34.1095C67.6045 34.1525 67.439 34.174 67.2756 34.174C66.9833 34.174 66.7683 34.0987 66.6308 33.9483C66.4932 33.7978 66.4244 33.562 66.4244 33.241V30.3262H66.0891L65.0659 30.653V30.9281H65.6936V33.3915C65.6936 33.8272 65.7946 34.1603 65.9966 34.3911C66.1987 34.6218 66.4903 34.7371 66.8715 34.7371ZM71.0663 34.7285C71.5822 34.7285 71.9856 34.6118 72.2765 34.3782C72.5674 34.1446 72.7129 33.8214 72.7129 33.4087C72.7129 33.2511 72.6842 33.1071 72.6269 32.9766C72.5696 32.8462 72.4865 32.738 72.3776 32.6521C72.2285 32.5288 71.9878 32.3912 71.6553 32.2393C71.5607 32.1964 71.4905 32.1634 71.4446 32.1405C71.1523 32 70.9545 31.8725 70.8514 31.7578C70.7482 31.6432 70.6966 31.5042 70.6966 31.3408C70.6966 31.1402 70.7611 30.984 70.8901 30.8722C71.019 30.7604 71.1982 30.7046 71.4274 30.7046C71.5335 30.7046 71.6395 30.7203 71.7456 30.7518C71.8516 30.7834 71.9634 30.8307 72.0809 30.8937L72.1497 31.5171H72.5839V30.5197C72.4349 30.4566 72.2751 30.4086 72.1046 30.3757C71.934 30.3427 71.7499 30.3262 71.5521 30.3262C71.0563 30.3262 70.6722 30.4337 70.4 30.6487C70.1277 30.8636 69.9915 31.1674 69.9915 31.5601C69.9915 31.818 70.0711 32.0344 70.2301 32.2093C70.3892 32.3841 70.6894 32.5704 71.1308 32.7681C71.5206 32.9458 71.7671 33.0927 71.8703 33.2088C71.9734 33.3249 72.025 33.4718 72.025 33.6495C72.025 33.8616 71.9498 34.0328 71.7993 34.1632C71.6489 34.2936 71.4489 34.3588 71.1996 34.3588C71.0735 34.3588 70.9481 34.3416 70.8234 34.3072C70.6987 34.2728 70.5748 34.2198 70.4515 34.1482L70.3441 33.4001H69.9228V34.5437C70.0861 34.6067 70.2645 34.6533 70.458 34.6834C70.6515 34.7135 70.8542 34.7285 71.0663 34.7285ZM74.4701 34.677C74.6507 34.677 74.8384 34.6605 75.0333 34.6275C75.2282 34.5946 75.4259 34.5465 75.6266 34.4835V34.1568C75.5176 34.1826 75.4123 34.2012 75.3106 34.2126C75.2088 34.2241 75.1107 34.2298 75.0161 34.2298C74.7409 34.2298 74.5503 34.1646 74.4443 34.0342C74.3382 33.9038 74.2852 33.648 74.2852 33.2668V30.9453H75.6266V30.5326H74.2852V29.5954H73.9585L73.5802 30.4165L72.9998 30.6702V30.9453H73.5544V33.787C73.5544 34.1252 73.6224 34.3581 73.7586 34.4856C73.8947 34.6132 74.1319 34.677 74.4701 34.677ZM77.7148 34.7285C77.9985 34.7285 78.2808 34.6841 78.5617 34.5953C78.8426 34.5064 79.1134 34.376 79.3743 34.204V33.7182C79.1106 33.8931 78.8662 34.0221 78.6413 34.1052C78.4163 34.1883 78.1992 34.2298 77.9899 34.2298C77.5371 34.2298 77.1774 34.0686 76.9109 33.7462C76.6443 33.4238 76.511 32.986 76.511 32.4328V32.3339H79.3614C79.3671 32.2995 79.3707 32.2637 79.3721 32.2264C79.3735 32.1892 79.3743 32.1347 79.3743 32.0631C79.3743 31.5271 79.2317 31.1037 78.9465 30.7927C78.6613 30.4817 78.2751 30.3262 77.7879 30.3262C77.1917 30.3262 76.7038 30.5347 76.324 30.9518C75.9443 31.3688 75.7544 31.9069 75.7544 32.5661C75.7544 33.2081 75.9357 33.729 76.2982 34.1288C76.6608 34.5286 77.133 34.7285 77.7148 34.7285ZM78.5875 31.9642H76.554C76.5798 31.6059 76.6995 31.31 76.913 31.0764C77.1265 30.8428 77.3795 30.726 77.6718 30.726C77.9699 30.726 78.197 30.8206 78.3532 31.0098C78.5094 31.199 78.5875 31.4712 78.5875 31.8266V31.9642ZM81.4754 34.7285C81.7133 34.7285 81.9411 34.6856 82.159 34.5996C82.3768 34.5136 82.6003 34.3789 82.8296 34.1955V34.6512H84.1323V34.333L83.7109 34.29L83.5605 34.1482V28.1724H83.2294L82.1547 28.4862V28.7613H82.8296V30.4165C82.6892 30.385 82.553 30.3606 82.4212 30.3434C82.2894 30.3262 82.1647 30.3176 82.0472 30.3176C81.3736 30.3176 80.8269 30.5347 80.4071 30.969C79.9872 31.4032 79.7772 31.9699 79.7772 32.6693C79.7772 33.2711 79.937 33.7648 80.2566 34.1503C80.5762 34.5358 80.9824 34.7285 81.4754 34.7285ZM81.8709 34.174C81.4697 34.174 81.1494 34.0249 80.9101 33.7268C80.6707 33.4288 80.5511 33.0261 80.5511 32.5188C80.5511 31.9742 80.6894 31.5357 80.9659 31.2033C81.2425 30.8708 81.6058 30.7046 82.0558 30.7046C82.1561 30.7046 82.27 30.7167 82.3976 30.7411C82.5251 30.7655 82.6691 30.8006 82.8296 30.8464V33.8687C82.6634 33.9719 82.5007 34.0486 82.3417 34.0987C82.1826 34.1489 82.0257 34.174 81.8709 34.174ZM89.693 34.7586C89.9854 34.7586 90.282 34.7321 90.583 34.6791C90.8839 34.6261 91.1791 34.5494 91.4686 34.4491V33.0562H90.9957L90.7807 34.0364L90.6431 34.174C90.5142 34.2141 90.3859 34.2435 90.2584 34.2621C90.1308 34.2807 90.004 34.29 89.8779 34.29C89.1585 34.29 88.5953 34.0543 88.1883 33.5828C87.7814 33.1114 87.5779 32.4615 87.5779 31.6332C87.5779 30.8536 87.7728 30.2374 88.1625 29.7845C88.5523 29.3317 89.0797 29.1053 89.7446 29.1053C89.9109 29.1053 90.0742 29.1239 90.2347 29.1612C90.3952 29.1984 90.56 29.2557 90.7291 29.3331L90.8452 29.4922L90.9785 30.2918H91.4686V28.9376C91.1533 28.8373 90.8502 28.7621 90.5593 28.7119C90.2684 28.6617 89.9911 28.6367 89.7274 28.6367C88.8103 28.6367 88.0715 28.9168 87.5112 29.4772C86.9509 30.0375 86.6707 30.7762 86.6707 31.6934C86.6707 32.2666 86.8062 32.7946 87.077 33.2776C87.3479 33.7605 87.7197 34.1367 88.1926 34.4061C88.399 34.5208 88.6283 34.6082 88.8805 34.6684C89.1327 34.7285 89.4036 34.7586 89.693 34.7586ZM93.5955 34.7371C93.8047 34.7371 94.0261 34.6899 94.2597 34.5953C94.4933 34.5007 94.7477 34.3545 95.0228 34.1568V34.6512H96.3255V34.333L95.9127 34.29L95.7537 34.1482V30.3262H95.4183L94.3951 30.653V30.9281H95.0228V33.9117C94.8394 34.0006 94.6638 34.0665 94.4962 34.1095C94.3285 34.1525 94.163 34.174 93.9996 34.174C93.7073 34.174 93.4923 34.0987 93.3548 33.9483C93.2172 33.7978 93.1484 33.562 93.1484 33.241V30.3262H92.8131L91.7899 30.653V30.9281H92.4175V33.3915C92.4175 33.8272 92.5186 34.1603 92.7206 34.3911C92.9227 34.6218 93.2143 34.7371 93.5955 34.7371ZM98.663 34.6512V34.333L98.0483 34.29L97.8978 34.1482V31.6332C98.0841 31.4125 98.2553 31.2498 98.4115 31.1452C98.5677 31.0406 98.7161 30.9883 98.8565 30.9883C98.9482 30.9883 99.0321 31.0062 99.108 31.042C99.184 31.0779 99.2506 31.1302 99.3079 31.199H99.5874V30.4423C99.4956 30.4022 99.4068 30.3728 99.3208 30.3542C99.2348 30.3355 99.1474 30.3262 99.0586 30.3262C98.9984 30.3262 98.9532 30.3277 98.9231 30.3305C98.893 30.3334 98.8651 30.3391 98.8393 30.3477C98.6673 30.4853 98.5033 30.625 98.3471 30.7669C98.1909 30.9088 98.0411 31.0528 97.8978 31.199V30.3735H97.5625L96.5393 30.6874V30.9625H97.1583V34.1482L97.0079 34.29L96.5393 34.333V34.6512H98.663ZM101.731 34.6512V34.333L101.117 34.29L100.966 34.1482V31.6332C101.153 31.4125 101.324 31.2498 101.48 31.1452C101.636 31.0406 101.785 30.9883 101.925 30.9883C102.017 30.9883 102.1 31.0062 102.176 31.042C102.252 31.0779 102.319 31.1302 102.376 31.199H102.656V30.4423C102.564 30.4022 102.475 30.3728 102.389 30.3542C102.303 30.3355 102.216 30.3262 102.127 30.3262C102.067 30.3262 102.022 30.3277 101.992 30.3305C101.961 30.3334 101.934 30.3391 101.908 30.3477C101.736 30.4853 101.572 30.625 101.415 30.7669C101.259 30.9088 101.11 31.0528 100.966 31.199V30.3735H100.631L99.6077 30.6874V30.9625H100.227V34.1482L100.076 34.29L99.6077 34.333V34.6512H101.731ZM103.768 29.432C103.911 29.432 104.033 29.3833 104.131 29.2858C104.23 29.1884 104.28 29.0694 104.28 28.929C104.28 28.7886 104.23 28.6682 104.131 28.5679C104.033 28.4676 103.911 28.4174 103.768 28.4174C103.628 28.4174 103.508 28.4669 103.409 28.5657C103.31 28.6646 103.261 28.7857 103.261 28.929C103.261 29.0694 103.31 29.1884 103.409 29.2858C103.508 29.3833 103.628 29.432 103.768 29.432ZM104.701 34.6512V34.333L104.228 34.29L104.078 34.1482V30.3735H103.734L102.723 30.6874V30.9625H103.338V34.1482L103.188 34.29L102.723 34.333V34.6512H104.701ZM106.871 34.7285C107.155 34.7285 107.437 34.6841 107.718 34.5953C107.999 34.5064 108.27 34.376 108.53 34.204V33.7182C108.267 33.8931 108.022 34.0221 107.797 34.1052C107.572 34.1883 107.355 34.2298 107.146 34.2298C106.693 34.2298 106.334 34.0686 106.067 33.7462C105.8 33.4238 105.667 32.986 105.667 32.4328V32.3339H108.518C108.523 32.2995 108.527 32.2637 108.528 32.2264C108.53 32.1892 108.53 32.1347 108.53 32.0631C108.53 31.5271 108.388 31.1037 108.103 30.7927C107.817 30.4817 107.431 30.3262 106.944 30.3262C106.348 30.3262 105.86 30.5347 105.48 30.9518C105.1 31.3688 104.911 31.9069 104.911 32.5661C104.911 33.2081 105.092 33.729 105.454 34.1288C105.817 34.5286 106.289 34.7285 106.871 34.7285ZM107.744 31.9642H105.71C105.736 31.6059 105.856 31.31 106.069 31.0764C106.283 30.8428 106.536 30.726 106.828 30.726C107.126 30.726 107.353 30.8206 107.509 31.0098C107.666 31.199 107.744 31.4712 107.744 31.8266V31.9642ZM111.001 34.6512V34.333L110.386 34.29L110.236 34.1482V31.6332C110.422 31.4125 110.594 31.2498 110.75 31.1452C110.906 31.0406 111.054 30.9883 111.195 30.9883C111.286 30.9883 111.37 31.0062 111.446 31.042C111.522 31.0779 111.589 31.1302 111.646 31.199H111.926V30.4423C111.834 30.4022 111.745 30.3728 111.659 30.3542C111.573 30.3355 111.486 30.3262 111.397 30.3262C111.337 30.3262 111.291 30.3277 111.261 30.3305C111.231 30.3334 111.203 30.3391 111.178 30.3477C111.006 30.4853 110.841 30.625 110.685 30.7669C110.529 30.9088 110.379 31.0528 110.236 31.199V30.3735H109.901L108.878 30.6874V30.9625H109.497V34.1482L109.346 34.29L108.878 34.333V34.6512H111.001Z" fill="white"/>
</svg>
