<svg width="17" height="19" viewBox="0 0 17 19" fill="none" xmlns="http://www.w3.org/2000/svg">
<path d="M1.25328 18.6231C0.821409 18.6231 0.605469 18.4772 0.605469 18.1854C0.605469 18.022 0.611304 17.9169 0.622976 17.8702C0.634648 17.8235 0.646326 17.7885 0.657999 17.7652L7.83645 1.44734C7.88314 1.35396 7.94734 1.25474 8.02904 1.14969C8.11075 1.03297 8.2975 0.974609 8.58931 0.974609H8.71187C8.87529 0.974609 9.00368 0.997954 9.09706 1.04464C9.19043 1.07966 9.26047 1.12635 9.30716 1.18471C9.35385 1.24307 9.38302 1.30727 9.39469 1.3773C9.41804 1.43566 9.44139 1.48235 9.46473 1.51737C10.0483 2.87135 10.5503 4.02691 10.9705 4.98404C11.4023 5.94116 11.7933 6.79324 12.1435 7.54027C12.4937 8.28729 12.8205 8.98763 13.124 9.64128C13.4391 10.2833 13.766 10.9778 14.1045 11.7248C14.4546 12.4718 14.834 13.3239 15.2425 14.281C15.6627 15.2381 16.153 16.3995 16.7132 17.7652L16.6957 17.7477L16.7307 17.9228C16.7424 17.9811 16.7541 18.0336 16.7657 18.0803C16.7774 18.127 16.7832 18.162 16.7832 18.1854C16.7832 18.4772 16.5732 18.6231 16.1529 18.6231H1.25328ZM4.87752 15.5416H12.5112L8.62433 6.61232L4.87752 15.5416Z" fill="white"/>
</svg>
