<svg width="39" height="25" viewBox="0 0 39 25" fill="none" xmlns="http://www.w3.org/2000/svg">
<rect x="0.5" y="0.5" width="38" height="24" stroke="white"/>
<path d="M6.05682 17V8.27273H7.11364V16.0625H11.1705V17H6.05682ZM15.3295 17.1364C14.7386 17.1364 14.2202 16.9957 13.7741 16.7145C13.331 16.4332 12.9844 16.0398 12.7344 15.5341C12.4872 15.0284 12.3636 14.4375 12.3636 13.7614C12.3636 13.0795 12.4872 12.4844 12.7344 11.9759C12.9844 11.4673 13.331 11.0724 13.7741 10.7912C14.2202 10.5099 14.7386 10.3693 15.3295 10.3693C15.9205 10.3693 16.4375 10.5099 16.8807 10.7912C17.3267 11.0724 17.6733 11.4673 17.9205 11.9759C18.1705 12.4844 18.2955 13.0795 18.2955 13.7614C18.2955 14.4375 18.1705 15.0284 17.9205 15.5341C17.6733 16.0398 17.3267 16.4332 16.8807 16.7145C16.4375 16.9957 15.9205 17.1364 15.3295 17.1364ZM15.3295 16.233C15.7784 16.233 16.1477 16.1179 16.4375 15.8878C16.7273 15.6577 16.9418 15.3551 17.081 14.9801C17.2202 14.6051 17.2898 14.1989 17.2898 13.7614C17.2898 13.3239 17.2202 12.9162 17.081 12.5384C16.9418 12.1605 16.7273 11.8551 16.4375 11.6222C16.1477 11.3892 15.7784 11.2727 15.3295 11.2727C14.8807 11.2727 14.5114 11.3892 14.2216 11.6222C13.9318 11.8551 13.7173 12.1605 13.5781 12.5384C13.4389 12.9162 13.3693 13.3239 13.3693 13.7614C13.3693 14.1989 13.4389 14.6051 13.5781 14.9801C13.7173 15.3551 13.9318 15.6577 14.2216 15.8878C14.5114 16.1179 14.8807 16.233 15.3295 16.233ZM22.4727 19.5909C21.9869 19.5909 21.5692 19.5284 21.2198 19.4034C20.8704 19.2812 20.5792 19.1193 20.3462 18.9176C20.1161 18.7188 19.9329 18.5057 19.7965 18.2784L20.5977 17.7159C20.6886 17.8352 20.8036 17.9716 20.9428 18.125C21.082 18.2812 21.2724 18.4162 21.5138 18.5298C21.7582 18.6463 22.0778 18.7045 22.4727 18.7045C23.0011 18.7045 23.4371 18.5767 23.7809 18.321C24.1246 18.0653 24.2965 17.6648 24.2965 17.1193V15.7898H24.2113C24.1374 15.9091 24.0323 16.0568 23.896 16.233C23.7624 16.4062 23.5692 16.5611 23.3164 16.6974C23.0664 16.831 22.7283 16.8977 22.3022 16.8977C21.7738 16.8977 21.2994 16.7727 20.8789 16.5227C20.4613 16.2727 20.1303 15.9091 19.886 15.4318C19.6445 14.9545 19.5238 14.375 19.5238 13.6932C19.5238 13.0227 19.6417 12.4389 19.8775 11.9418C20.1133 11.4418 20.4414 11.0554 20.8619 10.7827C21.2823 10.5071 21.7681 10.3693 22.3192 10.3693C22.7454 10.3693 23.0835 10.4403 23.3335 10.5824C23.5863 10.7216 23.7795 10.8807 23.913 11.0597C24.0494 11.2358 24.1545 11.3807 24.2283 11.4943H24.3306V10.4545H25.3022V17.1875C25.3022 17.75 25.1744 18.2074 24.9187 18.5597C24.6658 18.9148 24.3249 19.1747 23.896 19.3395C23.4698 19.5071 22.9954 19.5909 22.4727 19.5909ZM22.4386 15.9943C22.842 15.9943 23.1829 15.902 23.4613 15.7173C23.7397 15.5327 23.9513 15.267 24.0962 14.9205C24.2411 14.5739 24.3136 14.1591 24.3136 13.6761C24.3136 13.2045 24.2425 12.7884 24.1005 12.4276C23.9585 12.0668 23.7482 11.7841 23.4698 11.5795C23.1914 11.375 22.8477 11.2727 22.4386 11.2727C22.0124 11.2727 21.6573 11.3807 21.3732 11.5966C21.092 11.8125 20.8803 12.1023 20.7383 12.4659C20.5991 12.8295 20.5295 13.233 20.5295 13.6761C20.5295 14.1307 20.6005 14.5327 20.7425 14.8821C20.8874 15.2287 21.1005 15.5014 21.3817 15.7003C21.6658 15.8963 22.0181 15.9943 22.4386 15.9943ZM29.8022 17.1364C29.2113 17.1364 28.6928 16.9957 28.2468 16.7145C27.8036 16.4332 27.457 16.0398 27.207 15.5341C26.9599 15.0284 26.8363 14.4375 26.8363 13.7614C26.8363 13.0795 26.9599 12.4844 27.207 11.9759C27.457 11.4673 27.8036 11.0724 28.2468 10.7912C28.6928 10.5099 29.2113 10.3693 29.8022 10.3693C30.3931 10.3693 30.9102 10.5099 31.3533 10.7912C31.7994 11.0724 32.146 11.4673 32.3931 11.9759C32.6431 12.4844 32.7681 13.0795 32.7681 13.7614C32.7681 14.4375 32.6431 15.0284 32.3931 15.5341C32.146 16.0398 31.7994 16.4332 31.3533 16.7145C30.9102 16.9957 30.3931 17.1364 29.8022 17.1364ZM29.8022 16.233C30.2511 16.233 30.6204 16.1179 30.9102 15.8878C31.1999 15.6577 31.4144 15.3551 31.5536 14.9801C31.6928 14.6051 31.7624 14.1989 31.7624 13.7614C31.7624 13.3239 31.6928 12.9162 31.5536 12.5384C31.4144 12.1605 31.1999 11.8551 30.9102 11.6222C30.6204 11.3892 30.2511 11.2727 29.8022 11.2727C29.3533 11.2727 28.984 11.3892 28.6942 11.6222C28.4045 11.8551 28.19 12.1605 28.0508 12.5384C27.9116 12.9162 27.842 13.3239 27.842 13.7614C27.842 14.1989 27.9116 14.6051 28.0508 14.9801C28.19 15.3551 28.4045 15.6577 28.6942 15.8878C28.984 16.1179 29.3533 16.233 29.8022 16.233Z" fill="white"/>
</svg>
